  0
SECTION
  2
HEADER
  9
$ACADVER
  1
AC1009
  9
$EXTMIN
 10
0.0
 20
0.0
 30
0.0
  9
$EXTMAX
 10
1000.0
 20
1000.0
 30
0.0
  9
$FILLMODE
 70
 0
  9
$SPLFRAME
 70
 1
  0
ENDSEC
  0
SECTION
  2
TABLES
  0
TABLE
  2
LAYER
 70
1
  0
LAYER
  2
0
 70
     0
 62
     7
  6
CONTINUOUS
  0
ENDTAB
  0
ENDSEC
  0
SECTION
  2
ENTITIES
  0
LINE
  8
0
 62
     0
 10
71.8495
 20
113.243
 30
0.0
 11
61.8504
 21
68.5423
 31
0.0
  0
LINE
  8
0
 62
     0
 10
61.8504
 20
68.5423
 30
0.0
 11
161.55
 21
68.5423
 31
0.0
  0
LINE
  8
0
 62
     0
 10
161.55
 20
68.5423
 30
0.0
 11
151.55
 21
113.243
 31
0.0
  0
LINE
  8
0
 62
     0
 10
151.55
 20
113.243
 30
0.0
 11
145.85
 21
113.243
 31
0.0
  0
LINE
  8
0
 62
     0
 10
145.85
 20
113.243
 30
0.0
 11
145.85
 21
90.5425
 31
0.0
  0
LINE
  8
0
 62
     0
 10
145.85
 20
90.5425
 30
0.0
 11
141.851
 21
90.5425
 31
0.0
  0
LINE
  8
0
 62
     0
 10
141.851
 20
90.5425
 30
0.0
 11
141.851
 21
113.243
 31
0.0
  0
LINE
  8
0
 62
     0
 10
141.851
 20
113.243
 30
0.0
 11
81.5509
 21
113.243
 31
0.0
  0
LINE
  8
0
 62
     0
 10
81.5509
 20
113.243
 30
0.0
 11
81.5509
 21
90.5425
 31
0.0
  0
LINE
  8
0
 62
     0
 10
81.5509
 20
90.5425
 30
0.0
 11
77.5504
 21
90.5425
 31
0.0
  0
LINE
  8
0
 62
     0
 10
77.5504
 20
90.5425
 30
0.0
 11
77.5504
 21
113.243
 31
0.0
  0
LINE
  8
0
 62
     0
 10
77.5504
 20
113.243
 30
0.0
 11
71.8495
 21
113.243
 31
0.0
  0
LINE
  8
0
 62
     0
 10
86.8507
 20
110.243
 30
0.0
 11
136.55
 21
110.243
 31
0.0
  0
LINE
  8
0
 62
     0
 10
136.55
 20
110.243
 30
0.0
 11
136.55
 21
106.243
 31
0.0
  0
LINE
  8
0
 62
     0
 10
136.55
 20
106.243
 30
0.0
 11
86.8507
 21
106.243
 31
0.0
  0
LINE
  8
0
 62
     0
 10
86.8507
 20
106.243
 30
0.0
 11
86.8507
 21
110.243
 31
0.0
  0
LINE
  8
0
 62
     0
 10
71.8495
 20
66.5427
 30
0.0
 11
61.8504
 21
21.8419
 31
0.0
  0
LINE
  8
0
 62
     0
 10
61.8504
 20
21.8419
 30
0.0
 11
77.5504
 21
21.8419
 31
0.0
  0
LINE
  8
0
 62
     0
 10
77.5504
 20
21.8419
 30
0.0
 11
77.5504
 21
44.5424
 31
0.0
  0
LINE
  8
0
 62
     0
 10
77.5504
 20
44.5424
 30
0.0
 11
81.5509
 21
44.5424
 31
0.0
  0
LINE
  8
0
 62
     0
 10
81.5509
 20
44.5424
 30
0.0
 11
81.5509
 21
21.8419
 31
0.0
  0
LINE
  8
0
 62
     0
 10
81.5509
 20
21.8419
 30
0.0
 11
141.851
 21
21.8419
 31
0.0
  0
LINE
  8
0
 62
     0
 10
141.851
 20
21.8419
 30
0.0
 11
141.851
 21
44.5424
 31
0.0
  0
LINE
  8
0
 62
     0
 10
141.851
 20
44.5424
 30
0.0
 11
145.85
 21
44.5424
 31
0.0
  0
LINE
  8
0
 62
     0
 10
145.85
 20
44.5424
 30
0.0
 11
145.85
 21
21.8419
 31
0.0
  0
LINE
  8
0
 62
     0
 10
145.85
 20
21.8419
 30
0.0
 11
161.55
 21
21.8419
 31
0.0
  0
LINE
  8
0
 62
     0
 10
161.55
 20
21.8419
 30
0.0
 11
151.55
 21
66.5427
 31
0.0
  0
LINE
  8
0
 62
     0
 10
151.55
 20
66.5427
 30
0.0
 11
71.8495
 21
66.5427
 31
0.0
  0
LINE
  8
0
 62
     0
 10
91.2001
 20
54.6929
 30
0.0
 11
91.2001
 21
54.5426
 31
0.0
  0
LINE
  8
0
 62
     0
 10
91.2001
 20
54.5426
 30
0.0
 11
90.9507
 21
54.0921
 31
0.0
  0
LINE
  8
0
 62
     0
 10
90.9507
 20
54.0921
 30
0.0
 11
90.4998
 21
53.8427
 31
0.0
  0
LINE
  8
0
 62
     0
 10
90.4998
 20
53.8427
 30
0.0
 11
90.3496
 21
53.8427
 31
0.0
  0
LINE
  8
0
 62
     0
 10
90.3496
 20
53.8427
 30
0.0
 11
90.1996
 21
53.8427
 31
0.0
  0
LINE
  8
0
 62
     0
 10
90.1996
 20
53.8427
 30
0.0
 11
89.7488
 21
54.0921
 31
0.0
  0
LINE
  8
0
 62
     0
 10
89.7488
 20
54.0921
 30
0.0
 11
89.5008
 21
54.5426
 31
0.0
  0
LINE
  8
0
 62
     0
 10
89.5008
 20
54.5426
 30
0.0
 11
89.5008
 21
54.6929
 31
0.0
  0
LINE
  8
0
 62
     0
 10
89.5008
 20
54.6929
 30
0.0
 11
89.5008
 21
54.8432
 31
0.0
  0
LINE
  8
0
 62
     0
 10
89.5008
 20
54.8432
 30
0.0
 11
89.7488
 21
55.2937
 31
0.0
  0
LINE
  8
0
 62
     0
 10
89.7488
 20
55.2937
 30
0.0
 11
90.1996
 21
55.5417
 31
0.0
  0
LINE
  8
0
 62
     0
 10
90.1996
 20
55.5417
 30
0.0
 11
90.3496
 21
55.5417
 31
0.0
  0
LINE
  8
0
 62
     0
 10
90.3496
 20
55.5417
 30
0.0
 11
90.4998
 21
55.5417
 31
0.0
  0
LINE
  8
0
 62
     0
 10
90.4998
 20
55.5417
 30
0.0
 11
90.9507
 21
55.2937
 31
0.0
  0
LINE
  8
0
 62
     0
 10
90.9507
 20
55.2937
 30
0.0
 11
91.2001
 21
54.8432
 31
0.0
  0
LINE
  8
0
 62
     0
 10
91.2001
 20
54.8432
 30
0.0
 11
91.2001
 21
54.6929
 31
0.0
  0
LINE
  8
0
 62
     0
 10
91.2001
 20
26.993
 30
0.0
 11
91.2001
 21
26.8428
 31
0.0
  0
LINE
  8
0
 62
     0
 10
91.2001
 20
26.8428
 30
0.0
 11
90.9507
 21
26.3922
 31
0.0
  0
LINE
  8
0
 62
     0
 10
90.9507
 20
26.3922
 30
0.0
 11
90.4998
 21
26.1428
 31
0.0
  0
LINE
  8
0
 62
     0
 10
90.4998
 20
26.1428
 30
0.0
 11
90.3496
 21
26.1428
 31
0.0
  0
LINE
  8
0
 62
     0
 10
90.3496
 20
26.1428
 30
0.0
 11
90.1996
 21
26.1428
 31
0.0
  0
LINE
  8
0
 62
     0
 10
90.1996
 20
26.1428
 30
0.0
 11
89.7488
 21
26.3922
 31
0.0
  0
LINE
  8
0
 62
     0
 10
89.7488
 20
26.3922
 30
0.0
 11
89.5008
 21
26.8428
 31
0.0
  0
LINE
  8
0
 62
     0
 10
89.5008
 20
26.8428
 30
0.0
 11
89.5008
 21
26.993
 31
0.0
  0
LINE
  8
0
 62
     0
 10
89.5008
 20
26.993
 30
0.0
 11
89.5008
 21
27.1432
 31
0.0
  0
LINE
  8
0
 62
     0
 10
89.5008
 20
27.1432
 30
0.0
 11
89.7488
 21
27.5939
 31
0.0
  0
LINE
  8
0
 62
     0
 10
89.7488
 20
27.5939
 30
0.0
 11
90.1996
 21
27.8419
 31
0.0
  0
LINE
  8
0
 62
     0
 10
90.1996
 20
27.8419
 30
0.0
 11
90.3496
 21
27.8419
 31
0.0
  0
LINE
  8
0
 62
     0
 10
90.3496
 20
27.8419
 30
0.0
 11
90.4998
 21
27.8419
 31
0.0
  0
LINE
  8
0
 62
     0
 10
90.4998
 20
27.8419
 30
0.0
 11
90.9507
 21
27.5939
 31
0.0
  0
LINE
  8
0
 62
     0
 10
90.9507
 20
27.5939
 30
0.0
 11
91.2001
 21
27.1432
 31
0.0
  0
LINE
  8
0
 62
     0
 10
91.2001
 20
27.1432
 30
0.0
 11
91.2001
 21
26.993
 31
0.0
  0
LINE
  8
0
 62
     0
 10
133.9
 20
26.993
 30
0.0
 11
133.9
 21
26.8428
 31
0.0
  0
LINE
  8
0
 62
     0
 10
133.9
 20
26.8428
 30
0.0
 11
133.651
 21
26.3922
 31
0.0
  0
LINE
  8
0
 62
     0
 10
133.651
 20
26.3922
 30
0.0
 11
133.2
 21
26.1428
 31
0.0
  0
LINE
  8
0
 62
     0
 10
133.2
 20
26.1428
 30
0.0
 11
133.049
 21
26.1428
 31
0.0
  0
LINE
  8
0
 62
     0
 10
133.049
 20
26.1428
 30
0.0
 11
132.9
 21
26.1428
 31
0.0
  0
LINE
  8
0
 62
     0
 10
132.9
 20
26.1428
 30
0.0
 11
132.449
 21
26.3922
 31
0.0
  0
LINE
  8
0
 62
     0
 10
132.449
 20
26.3922
 30
0.0
 11
132.201
 21
26.8428
 31
0.0
  0
LINE
  8
0
 62
     0
 10
132.201
 20
26.8428
 30
0.0
 11
132.201
 21
26.993
 31
0.0
  0
LINE
  8
0
 62
     0
 10
132.201
 20
26.993
 30
0.0
 11
132.201
 21
27.1432
 31
0.0
  0
LINE
  8
0
 62
     0
 10
132.201
 20
27.1432
 30
0.0
 11
132.449
 21
27.5939
 31
0.0
  0
LINE
  8
0
 62
     0
 10
132.449
 20
27.5939
 30
0.0
 11
132.9
 21
27.8419
 31
0.0
  0
LINE
  8
0
 62
     0
 10
132.9
 20
27.8419
 30
0.0
 11
133.049
 21
27.8419
 31
0.0
  0
LINE
  8
0
 62
     0
 10
133.049
 20
27.8419
 30
0.0
 11
133.2
 21
27.8419
 31
0.0
  0
LINE
  8
0
 62
     0
 10
133.2
 20
27.8419
 30
0.0
 11
133.651
 21
27.5939
 31
0.0
  0
LINE
  8
0
 62
     0
 10
133.651
 20
27.5939
 30
0.0
 11
133.9
 21
27.1432
 31
0.0
  0
LINE
  8
0
 62
     0
 10
133.9
 20
27.1432
 30
0.0
 11
133.9
 21
26.993
 31
0.0
  0
LINE
  8
0
 62
     0
 10
133.9
 20
54.6929
 30
0.0
 11
133.9
 21
54.5426
 31
0.0
  0
LINE
  8
0
 62
     0
 10
133.9
 20
54.5426
 30
0.0
 11
133.651
 21
54.0921
 31
0.0
  0
LINE
  8
0
 62
     0
 10
133.651
 20
54.0921
 30
0.0
 11
133.2
 21
53.8427
 31
0.0
  0
LINE
  8
0
 62
     0
 10
133.2
 20
53.8427
 30
0.0
 11
133.049
 21
53.8427
 31
0.0
  0
LINE
  8
0
 62
     0
 10
133.049
 20
53.8427
 30
0.0
 11
132.9
 21
53.8427
 31
0.0
  0
LINE
  8
0
 62
     0
 10
132.9
 20
53.8427
 30
0.0
 11
132.449
 21
54.0921
 31
0.0
  0
LINE
  8
0
 62
     0
 10
132.449
 20
54.0921
 30
0.0
 11
132.201
 21
54.5426
 31
0.0
  0
LINE
  8
0
 62
     0
 10
132.201
 20
54.5426
 30
0.0
 11
132.201
 21
54.6929
 31
0.0
  0
LINE
  8
0
 62
     0
 10
132.201
 20
54.6929
 30
0.0
 11
132.201
 21
54.8432
 31
0.0
  0
LINE
  8
0
 62
     0
 10
132.201
 20
54.8432
 30
0.0
 11
132.449
 21
55.2937
 31
0.0
  0
LINE
  8
0
 62
     0
 10
132.449
 20
55.2937
 30
0.0
 11
132.9
 21
55.5417
 31
0.0
  0
LINE
  8
0
 62
     0
 10
132.9
 20
55.5417
 30
0.0
 11
133.049
 21
55.5417
 31
0.0
  0
LINE
  8
0
 62
     0
 10
133.049
 20
55.5417
 30
0.0
 11
133.2
 21
55.5417
 31
0.0
  0
LINE
  8
0
 62
     0
 10
133.2
 20
55.5417
 30
0.0
 11
133.651
 21
55.2937
 31
0.0
  0
LINE
  8
0
 62
     0
 10
133.651
 20
55.2937
 30
0.0
 11
133.9
 21
54.8432
 31
0.0
  0
LINE
  8
0
 62
     0
 10
133.9
 20
54.8432
 30
0.0
 11
133.9
 21
54.6929
 31
0.0
  0
LINE
  8
0
 62
     0
 10
205.75
 20
66.5427
 30
0.0
 11
206.71
 21
66.5427
 31
0.0
  0
LINE
  8
0
 62
     0
 10
206.71
 20
66.5427
 30
0.0
 11
209.593
 21
66.5427
 31
0.0
  0
LINE
  8
0
 62
     0
 10
209.593
 20
66.5427
 30
0.0
 11
213.986
 21
66.5427
 31
0.0
  0
LINE
  8
0
 62
     0
 10
213.986
 20
66.5427
 30
0.0
 11
218.601
 21
66.5427
 31
0.0
  0
LINE
  8
0
 62
     0
 10
218.601
 20
66.5427
 30
0.0
 11
223.11
 21
66.5427
 31
0.0
  0
LINE
  8
0
 62
     0
 10
223.11
 20
66.5427
 30
0.0
 11
227.186
 21
66.5427
 31
0.0
  0
LINE
  8
0
 62
     0
 10
227.186
 20
66.5427
 30
0.0
 11
230.503
 21
66.5427
 31
0.0
  0
LINE
  8
0
 62
     0
 10
230.503
 20
66.5427
 30
0.0
 11
232.733
 21
66.5427
 31
0.0
  0
LINE
  8
0
 62
     0
 10
232.733
 20
66.5427
 30
0.0
 11
233.55
 21
66.5427
 31
0.0
  0
LINE
  8
0
 62
     0
 10
233.55
 20
66.5427
 30
0.0
 11
233.55
 21
66.5427
 31
0.0
  0
LINE
  8
0
 62
     0
 10
233.55
 20
66.5427
 30
0.0
 11
233.55
 21
43.8422
 31
0.0
  0
LINE
  8
0
 62
     0
 10
233.55
 20
43.8422
 30
0.0
 11
237.55
 21
43.8422
 31
0.0
  0
LINE
  8
0
 62
     0
 10
237.55
 20
43.8422
 30
0.0
 11
237.55
 21
66.5427
 31
0.0
  0
LINE
  8
0
 62
     0
 10
237.55
 20
66.5427
 30
0.0
 11
253.249
 21
66.5427
 31
0.0
  0
LINE
  8
0
 62
     0
 10
253.249
 20
66.5427
 30
0.0
 11
243.25
 21
21.8419
 31
0.0
  0
LINE
  8
0
 62
     0
 10
243.25
 20
21.8419
 30
0.0
 11
163.55
 21
21.8419
 31
0.0
  0
LINE
  8
0
 62
     0
 10
163.55
 20
21.8419
 30
0.0
 11
153.551
 21
66.5427
 31
0.0
  0
LINE
  8
0
 62
     0
 10
153.551
 20
66.5427
 30
0.0
 11
169.249
 21
66.5427
 31
0.0
  0
LINE
  8
0
 62
     0
 10
169.249
 20
66.5427
 30
0.0
 11
169.249
 21
43.8422
 31
0.0
  0
LINE
  8
0
 62
     0
 10
169.249
 20
43.8422
 30
0.0
 11
173.25
 21
43.8422
 31
0.0
  0
LINE
  8
0
 62
     0
 10
173.25
 20
43.8422
 30
0.0
 11
173.25
 21
66.5427
 31
0.0
  0
LINE
  8
0
 62
     0
 10
173.25
 20
66.5427
 30
0.0
 11
173.25
 21
66.5427
 31
0.0
  0
LINE
  8
0
 62
     0
 10
173.25
 20
66.5427
 30
0.0
 11
174.063
 21
66.5427
 31
0.0
  0
LINE
  8
0
 62
     0
 10
174.063
 20
66.5427
 30
0.0
 11
176.287
 21
66.5427
 31
0.0
  0
LINE
  8
0
 62
     0
 10
176.287
 20
66.5427
 30
0.0
 11
179.596
 21
66.5427
 31
0.0
  0
LINE
  8
0
 62
     0
 10
179.596
 20
66.5427
 30
0.0
 11
183.665
 21
66.5427
 31
0.0
  0
LINE
  8
0
 62
     0
 10
183.665
 20
66.5427
 30
0.0
 11
188.167
 21
66.5427
 31
0.0
  0
LINE
  8
0
 62
     0
 10
188.167
 20
66.5427
 30
0.0
 11
192.781
 21
66.5427
 31
0.0
  0
LINE
  8
0
 62
     0
 10
192.781
 20
66.5427
 30
0.0
 11
197.177
 21
66.5427
 31
0.0
  0
LINE
  8
0
 62
     0
 10
197.177
 20
66.5427
 30
0.0
 11
200.069
 21
66.5427
 31
0.0
  0
LINE
  8
0
 62
     0
 10
200.069
 20
66.5427
 30
0.0
 11
201.034
 21
66.5427
 31
0.0
  0
LINE
  8
0
 62
     0
 10
201.034
 20
66.5427
 30
0.0
 11
201.05
 21
63.1927
 31
0.0
  0
LINE
  8
0
 62
     0
 10
201.05
 20
63.1927
 30
0.0
 11
201.05
 21
62.9652
 31
0.0
  0
LINE
  8
0
 62
     0
 10
201.05
 20
62.9652
 30
0.0
 11
201.234
 21
62.279
 31
0.0
  0
LINE
  8
0
 62
     0
 10
201.234
 20
62.279
 30
0.0
 11
201.737
 21
61.5308
 31
0.0
  0
LINE
  8
0
 62
     0
 10
201.737
 20
61.5308
 30
0.0
 11
202.485
 21
61.0277
 31
0.0
  0
LINE
  8
0
 62
     0
 10
202.485
 20
61.0277
 30
0.0
 11
203.171
 21
60.8432
 31
0.0
  0
LINE
  8
0
 62
     0
 10
203.171
 20
60.8432
 30
0.0
 11
203.4
 21
60.8432
 31
0.0
  0
LINE
  8
0
 62
     0
 10
203.4
 20
60.8432
 30
0.0
 11
203.627
 21
60.8432
 31
0.0
  0
LINE
  8
0
 62
     0
 10
203.627
 20
60.8432
 30
0.0
 11
204.313
 21
61.0277
 31
0.0
  0
LINE
  8
0
 62
     0
 10
204.313
 20
61.0277
 30
0.0
 11
205.06
 21
61.5322
 31
0.0
  0
LINE
  8
0
 62
     0
 10
205.06
 20
61.5322
 30
0.0
 11
205.565
 21
62.279
 31
0.0
  0
LINE
  8
0
 62
     0
 10
205.565
 20
62.279
 30
0.0
 11
205.75
 21
62.9652
 31
0.0
  0
LINE
  8
0
 62
     0
 10
205.75
 20
62.9652
 30
0.0
 11
205.75
 21
63.1927
 31
0.0
  0
LINE
  8
0
 62
     0
 10
205.75
 20
63.1927
 30
0.0
 11
205.75
 21
66.5427
 31
0.0
  0
LINE
  8
0
 62
     0
 10
5.05051
 20
113.243
 30
0.0
 11
5.05051
 21
109.24
 31
0.0
  0
LINE
  8
0
 62
     0
 10
5.05051
 20
109.24
 30
0.0
 11
0.0496094
 21
109.24
 31
0.0
  0
LINE
  8
0
 62
     0
 10
0.0496094
 20
109.24
 30
0.0
 11
0.0496094
 21
49.5406
 31
0.0
  0
LINE
  8
0
 62
     0
 10
0.0496094
 20
49.5406
 30
0.0
 11
5.05051
 21
49.5406
 31
0.0
  0
LINE
  8
0
 62
     0
 10
5.05051
 20
49.5406
 30
0.0
 11
5.05051
 21
45.5401
 31
0.0
  0
LINE
  8
0
 62
     0
 10
5.05051
 20
45.5401
 30
0.0
 11
54.7494
 21
45.5401
 31
0.0
  0
LINE
  8
0
 62
     0
 10
54.7494
 20
45.5401
 30
0.0
 11
54.7494
 21
49.5406
 31
0.0
  0
LINE
  8
0
 62
     0
 10
54.7494
 20
49.5406
 30
0.0
 11
59.7503
 21
49.5406
 31
0.0
  0
LINE
  8
0
 62
     0
 10
59.7503
 20
49.5406
 30
0.0
 11
59.7503
 21
109.24
 31
0.0
  0
LINE
  8
0
 62
     0
 10
59.7503
 20
109.24
 30
0.0
 11
54.7494
 21
109.24
 31
0.0
  0
LINE
  8
0
 62
     0
 10
54.7494
 20
109.24
 30
0.0
 11
54.7494
 21
113.243
 31
0.0
  0
LINE
  8
0
 62
     0
 10
54.7494
 20
113.243
 30
0.0
 11
5.05051
 21
113.243
 31
0.0
  0
LINE
  8
0
 62
     0
 10
34.1423
 20
86.3921
 30
0.0
 11
36.9013
 21
83.6344
 31
0.0
  0
LINE
  8
0
 62
     0
 10
36.9013
 20
83.6344
 30
0.0
 11
25.6577
 21
72.3911
 31
0.0
  0
LINE
  8
0
 62
     0
 10
25.6577
 20
72.3911
 30
0.0
 11
22.9003
 21
75.1487
 31
0.0
  0
LINE
  8
0
 62
     0
 10
22.9003
 20
75.1487
 30
0.0
 11
34.1423
 21
86.3921
 31
0.0
  0
LINE
  8
0
 62
     0
 10
128.361
 20
19.7418
 30
0.0
 11
253.261
 21
19.7418
 31
0.0
  0
LINE
  8
0
 62
     0
 10
253.261
 20
19.7418
 30
0.0
 11
253.261
 21
3.84196
 31
0.0
  0
LINE
  8
0
 62
     0
 10
253.261
 20
3.84196
 30
0.0
 11
128.361
 21
3.84196
 31
0.0
  0
LINE
  8
0
 62
     0
 10
128.361
 20
3.84196
 30
0.0
 11
128.361
 21
19.7418
 31
0.0
  0
LINE
  8
0
 62
     0
 10
201.662
 20
9.84194
 30
0.0
 11
201.662
 21
13.7418
 31
0.0
  0
LINE
  8
0
 62
     0
 10
201.662
 20
13.7418
 30
0.0
 11
211.562
 21
13.7418
 31
0.0
  0
LINE
  8
0
 62
     0
 10
211.562
 20
13.7418
 30
0.0
 11
211.562
 21
9.84194
 31
0.0
  0
LINE
  8
0
 62
     0
 10
211.562
 20
9.84194
 30
0.0
 11
201.662
 21
9.84194
 31
0.0
  0
LINE
  8
0
 62
     0
 10
215.561
 20
9.84194
 30
0.0
 11
215.561
 21
13.7418
 31
0.0
  0
LINE
  8
0
 62
     0
 10
215.561
 20
13.7418
 30
0.0
 11
225.462
 21
13.7418
 31
0.0
  0
LINE
  8
0
 62
     0
 10
225.462
 20
13.7418
 30
0.0
 11
225.462
 21
9.84194
 31
0.0
  0
LINE
  8
0
 62
     0
 10
225.462
 20
9.84194
 30
0.0
 11
215.561
 21
9.84194
 31
0.0
  0
LINE
  8
0
 62
     0
 10
11.8497
 20
39.8805
 30
0.0
 11
35.7505
 21
40.8795
 31
0.0
  0
LINE
  8
0
 62
     0
 10
35.7505
 20
40.8795
 30
0.0
 11
35.7505
 21
30.4808
 31
0.0
  0
LINE
  8
0
 62
     0
 10
35.7505
 20
30.4808
 30
0.0
 11
11.8497
 21
30.4808
 31
0.0
  0
LINE
  8
0
 62
     0
 10
11.8497
 20
30.4808
 30
0.0
 11
11.8497
 21
39.8805
 31
0.0
  0
LINE
  8
0
 62
     0
 10
37.8506
 20
39.8805
 30
0.0
 11
61.7499
 21
40.8795
 31
0.0
  0
LINE
  8
0
 62
     0
 10
61.7499
 20
40.8795
 30
0.0
 11
61.7499
 21
30.4808
 31
0.0
  0
LINE
  8
0
 62
     0
 10
61.7499
 20
30.4808
 30
0.0
 11
37.8506
 21
30.4808
 31
0.0
  0
LINE
  8
0
 62
     0
 10
37.8506
 20
30.4808
 30
0.0
 11
37.8506
 21
39.8805
 31
0.0
  0
LINE
  8
0
 62
     0
 10
126.038
 20
19.9499
 30
0.0
 11
111.104
 21
19.9499
 31
0.0
  0
LINE
  8
0
 62
     0
 10
111.104
 20
19.9499
 30
0.0
 11
111.104
 21
19.9499
 31
0.0
  0
LINE
  8
0
 62
     0
 10
111.104
 20
19.9499
 30
0.0
 11
110.25
 21
19.8065
 31
0.0
  0
LINE
  8
0
 62
     0
 10
110.25
 20
19.8065
 30
0.0
 11
107.918
 21
19.429
 31
0.0
  0
LINE
  8
0
 62
     0
 10
107.918
 20
19.429
 30
0.0
 11
104.447
 21
18.9025
 31
0.0
  0
LINE
  8
0
 62
     0
 10
104.447
 20
18.9025
 30
0.0
 11
100.177
 21
18.3114
 31
0.0
  0
LINE
  8
0
 62
     0
 10
100.177
 20
18.3114
 30
0.0
 11
95.4486
 21
17.7367
 31
0.0
  0
LINE
  8
0
 62
     0
 10
95.4486
 20
17.7367
 30
0.0
 11
90.6032
 21
17.2627
 31
0.0
  0
LINE
  8
0
 62
     0
 10
90.6032
 20
17.2627
 30
0.0
 11
85.9801
 21
16.9733
 31
0.0
  0
LINE
  8
0
 62
     0
 10
85.9801
 20
16.9733
 30
0.0
 11
82.9345
 21
16.9127
 31
0.0
  0
LINE
  8
0
 62
     0
 10
82.9345
 20
16.9127
 30
0.0
 11
81.9217
 21
16.9499
 31
0.0
  0
LINE
  8
0
 62
     0
 10
81.9217
 20
16.9499
 30
0.0
 11
81.2712
 21
16.9747
 31
0.0
  0
LINE
  8
0
 62
     0
 10
81.2712
 20
16.9747
 30
0.0
 11
79.3228
 21
17.1111
 31
0.0
  0
LINE
  8
0
 62
     0
 10
79.3228
 20
17.1111
 30
0.0
 11
76.4854
 21
17.395
 31
0.0
  0
LINE
  8
0
 62
     0
 10
76.4854
 20
17.395
 30
0.0
 11
73.4674
 21
17.7822
 31
0.0
  0
LINE
  8
0
 62
     0
 10
73.4674
 20
17.7822
 30
0.0
 11
70.3227
 21
18.2549
 31
0.0
  0
LINE
  8
0
 62
     0
 10
70.3227
 20
18.2549
 30
0.0
 11
67.1089
 21
18.7965
 31
0.0
  0
LINE
  8
0
 62
     0
 10
67.1089
 20
18.7965
 30
0.0
 11
63.8803
 21
19.3849
 31
0.0
  0
LINE
  8
0
 62
     0
 10
63.8803
 20
19.3849
 30
0.0
 11
60.6944
 21
20.005
 31
0.0
  0
LINE
  8
0
 62
     0
 10
60.6944
 20
20.005
 30
0.0
 11
57.6061
 21
20.6389
 31
0.0
  0
LINE
  8
0
 62
     0
 10
57.6061
 20
20.6389
 30
0.0
 11
54.6724
 21
21.2659
 31
0.0
  0
LINE
  8
0
 62
     0
 10
54.6724
 20
21.2659
 30
0.0
 11
51.9479
 21
21.8681
 31
0.0
  0
LINE
  8
0
 62
     0
 10
51.9479
 20
21.8681
 30
0.0
 11
49.488
 21
22.4276
 31
0.0
  0
LINE
  8
0
 62
     0
 10
49.488
 20
22.4276
 30
0.0
 11
47.3509
 21
22.9278
 31
0.0
  0
LINE
  8
0
 62
     0
 10
47.3509
 20
22.9278
 30
0.0
 11
45.5909
 21
23.3481
 31
0.0
  0
LINE
  8
0
 62
     0
 10
45.5909
 20
23.3481
 30
0.0
 11
44.2655
 21
23.6706
 31
0.0
  0
LINE
  8
0
 62
     0
 10
44.2655
 20
23.6706
 30
0.0
 11
43.4287
 21
23.8773
 31
0.0
  0
LINE
  8
0
 62
     0
 10
43.4287
 20
23.8773
 30
0.0
 11
43.138
 21
23.9503
 31
0.0
  0
LINE
  8
0
 62
     0
 10
43.138
 20
23.9503
 30
0.0
 11
43.138
 21
23.9503
 31
0.0
  0
LINE
  8
0
 62
     0
 10
43.138
 20
23.9503
 30
0.0
 11
43.138
 21
19.9499
 31
0.0
  0
LINE
  8
0
 62
     0
 10
43.138
 20
19.9499
 30
0.0
 11
29.1386
 21
19.9499
 31
0.0
  0
LINE
  8
0
 62
     0
 10
29.1386
 20
19.9499
 30
0.0
 11
29.1386
 21
19.9499
 31
0.0
  0
LINE
  8
0
 62
     0
 10
29.1386
 20
19.9499
 30
0.0
 11
28.9236
 21
19.7376
 31
0.0
  0
LINE
  8
0
 62
     0
 10
28.9236
 20
19.7376
 30
0.0
 11
28.3573
 21
19.1492
 31
0.0
  0
LINE
  8
0
 62
     0
 10
28.3573
 20
19.1492
 30
0.0
 11
27.5566
 21
18.2604
 31
0.0
  0
LINE
  8
0
 62
     0
 10
27.5566
 20
18.2604
 30
0.0
 11
26.6389
 21
17.1497
 31
0.0
  0
LINE
  8
0
 62
     0
 10
26.6389
 20
17.1497
 30
0.0
 11
25.7197
 21
15.8915
 31
0.0
  0
LINE
  8
0
 62
     0
 10
25.7197
 20
15.8915
 30
0.0
 11
24.9191
 21
14.5631
 31
0.0
  0
LINE
  8
0
 62
     0
 10
24.9191
 20
14.5631
 30
0.0
 11
24.3527
 21
13.2416
 31
0.0
  0
LINE
  8
0
 62
     0
 10
24.3527
 20
13.2416
 30
0.0
 11
24.1391
 21
12.3114
 31
0.0
  0
LINE
  8
0
 62
     0
 10
24.1391
 20
12.3114
 30
0.0
 11
24.1391
 21
11.9999
 31
0.0
  0
LINE
  8
0
 62
     0
 10
24.1391
 20
11.9999
 30
0.0
 11
24.1391
 21
11.6899
 31
0.0
  0
LINE
  8
0
 62
     0
 10
24.1391
 20
11.6899
 30
0.0
 11
24.3527
 21
10.7597
 31
0.0
  0
LINE
  8
0
 62
     0
 10
24.3527
 20
10.7597
 30
0.0
 11
24.9191
 21
9.43818
 31
0.0
  0
LINE
  8
0
 62
     0
 10
24.9191
 20
9.43818
 30
0.0
 11
25.7197
 21
8.10976
 31
0.0
  0
LINE
  8
0
 62
     0
 10
25.7197
 20
8.10976
 30
0.0
 11
26.6389
 21
6.85161
 31
0.0
  0
LINE
  8
0
 62
     0
 10
26.6389
 20
6.85161
 30
0.0
 11
27.5566
 21
5.74089
 31
0.0
  0
LINE
  8
0
 62
     0
 10
27.5566
 20
5.74089
 30
0.0
 11
28.3573
 21
4.85207
 31
0.0
  0
LINE
  8
0
 62
     0
 10
28.3573
 20
4.85207
 30
0.0
 11
28.9236
 21
4.26364
 31
0.0
  0
LINE
  8
0
 62
     0
 10
28.9236
 20
4.26364
 30
0.0
 11
29.1386
 21
4.05007
 31
0.0
  0
LINE
  8
0
 62
     0
 10
29.1386
 20
4.05007
 30
0.0
 11
29.1386
 21
4.05007
 31
0.0
  0
LINE
  8
0
 62
     0
 10
29.1386
 20
4.05007
 30
0.0
 11
43.138
 21
4.05007
 31
0.0
  0
LINE
  8
0
 62
     0
 10
43.138
 20
4.05007
 30
0.0
 11
43.138
 21
0.0496094
 31
0.0
  0
LINE
  8
0
 62
     0
 10
43.138
 20
0.0496094
 30
0.0
 11
43.138
 21
0.0496094
 31
0.0
  0
LINE
  8
0
 62
     0
 10
43.138
 20
0.0496094
 30
0.0
 11
43.4287
 21
0.124024
 31
0.0
  0
LINE
  8
0
 62
     0
 10
43.4287
 20
0.124024
 30
0.0
 11
44.2655
 21
0.330729
 31
0.0
  0
LINE
  8
0
 62
     0
 10
44.2655
 20
0.330729
 30
0.0
 11
45.5909
 21
0.653189
 31
0.0
  0
LINE
  8
0
 62
     0
 10
45.5909
 20
0.653189
 30
0.0
 11
47.3509
 21
1.07349
 31
0.0
  0
LINE
  8
0
 62
     0
 10
47.3509
 20
1.07349
 30
0.0
 11
49.488
 21
1.57372
 31
0.0
  0
LINE
  8
0
 62
     0
 10
49.488
 20
1.57372
 30
0.0
 11
51.9479
 21
2.1332
 31
0.0
  0
LINE
  8
0
 62
     0
 10
51.9479
 20
2.1332
 30
0.0
 11
54.6724
 21
2.73541
 31
0.0
  0
LINE
  8
0
 62
     0
 10
54.6724
 20
2.73541
 30
0.0
 11
57.6061
 21
3.36241
 31
0.0
  0
LINE
  8
0
 62
     0
 10
57.6061
 20
3.36241
 30
0.0
 11
60.6944
 21
3.9963
 31
0.0
  0
LINE
  8
0
 62
     0
 10
60.6944
 20
3.9963
 30
0.0
 11
63.8803
 21
4.61641
 31
0.0
  0
LINE
  8
0
 62
     0
 10
63.8803
 20
4.61641
 30
0.0
 11
67.1089
 21
5.20485
 31
0.0
  0
LINE
  8
0
 62
     0
 10
67.1089
 20
5.20485
 30
0.0
 11
70.3227
 21
5.74643
 31
0.0
  0
LINE
  8
0
 62
     0
 10
70.3227
 20
5.74643
 30
0.0
 11
73.4674
 21
6.21908
 31
0.0
  0
LINE
  8
0
 62
     0
 10
73.4674
 20
6.21908
 30
0.0
 11
76.4854
 21
6.60633
 31
0.0
  0
LINE
  8
0
 62
     0
 10
76.4854
 20
6.60633
 30
0.0
 11
79.3228
 21
6.89021
 31
0.0
  0
LINE
  8
0
 62
     0
 10
79.3228
 20
6.89021
 30
0.0
 11
81.2712
 21
7.02663
 31
0.0
  0
LINE
  8
0
 62
     0
 10
81.2712
 20
7.02663
 30
0.0
 11
81.9217
 21
7.05005
 31
0.0
  0
LINE
  8
0
 62
     0
 10
81.9217
 20
7.05005
 30
0.0
 11
82.9345
 21
7.08865
 31
0.0
  0
LINE
  8
0
 62
     0
 10
82.9345
 20
7.08865
 30
0.0
 11
85.9801
 21
7.028
 31
0.0
  0
LINE
  8
0
 62
     0
 10
85.9801
 20
7.028
 30
0.0
 11
90.6032
 21
6.73862
 31
0.0
  0
LINE
  8
0
 62
     0
 10
90.6032
 20
6.73862
 30
0.0
 11
95.4486
 21
6.26456
 31
0.0
  0
LINE
  8
0
 62
     0
 10
95.4486
 20
6.26456
 30
0.0
 11
100.177
 21
5.68992
 31
0.0
  0
LINE
  8
0
 62
     0
 10
100.177
 20
5.68992
 30
0.0
 11
104.447
 21
5.09873
 31
0.0
  0
LINE
  8
0
 62
     0
 10
104.447
 20
5.09873
 30
0.0
 11
107.918
 21
4.57232
 31
0.0
  0
LINE
  8
0
 62
     0
 10
107.918
 20
4.57232
 30
0.0
 11
110.25
 21
4.19474
 31
0.0
  0
LINE
  8
0
 62
     0
 10
110.25
 20
4.19474
 30
0.0
 11
111.104
 21
4.05007
 31
0.0
  0
LINE
  8
0
 62
     0
 10
111.104
 20
4.05007
 30
0.0
 11
111.104
 21
4.05007
 31
0.0
  0
LINE
  8
0
 62
     0
 10
111.104
 20
4.05007
 30
0.0
 11
126.038
 21
4.05007
 31
0.0
  0
LINE
  8
0
 62
     0
 10
126.038
 20
4.05007
 30
0.0
 11
126.038
 21
19.9499
 31
0.0
  0
LINE
  8
0
 62
     0
 10
29.2392
 20
13.9499
 30
0.0
 11
39.1389
 21
13.9499
 31
0.0
  0
LINE
  8
0
 62
     0
 10
39.1389
 20
13.9499
 30
0.0
 11
39.1389
 21
10.05
 31
0.0
  0
LINE
  8
0
 62
     0
 10
39.1389
 20
10.05
 30
0.0
 11
29.2392
 21
10.05
 31
0.0
  0
LINE
  8
0
 62
     0
 10
29.2392
 20
10.05
 30
0.0
 11
29.2392
 21
13.9499
 31
0.0
  0
LINE
  8
0
 62
     0
 10
163.55
 20
68.5423
 30
0.0
 11
153.551
 21
113.243
 31
0.0
  0
LINE
  8
0
 62
     0
 10
153.551
 20
113.243
 30
0.0
 11
253.25
 21
113.243
 31
0.0
  0
LINE
  8
0
 62
     0
 10
253.25
 20
113.243
 30
0.0
 11
243.25
 21
68.5423
 31
0.0
  0
LINE
  8
0
 62
     0
 10
243.25
 20
68.5423
 30
0.0
 11
237.55
 21
68.5423
 31
0.0
  0
LINE
  8
0
 62
     0
 10
237.55
 20
68.5423
 30
0.0
 11
237.55
 21
91.2428
 31
0.0
  0
LINE
  8
0
 62
     0
 10
237.55
 20
91.2428
 30
0.0
 11
233.55
 21
91.2428
 31
0.0
  0
LINE
  8
0
 62
     0
 10
233.55
 20
91.2428
 30
0.0
 11
233.55
 21
68.5423
 31
0.0
  0
LINE
  8
0
 62
     0
 10
233.55
 20
68.5423
 30
0.0
 11
173.25
 21
68.5423
 31
0.0
  0
LINE
  8
0
 62
     0
 10
173.25
 20
68.5423
 30
0.0
 11
173.25
 21
91.2428
 31
0.0
  0
LINE
  8
0
 62
     0
 10
173.25
 20
91.2428
 30
0.0
 11
169.251
 21
91.2428
 31
0.0
  0
LINE
  8
0
 62
     0
 10
169.251
 20
91.2428
 30
0.0
 11
169.251
 21
68.5423
 31
0.0
  0
LINE
  8
0
 62
     0
 10
169.251
 20
68.5423
 30
0.0
 11
163.55
 21
68.5423
 31
0.0
  0
LINE
  8
0
 62
     0
 10
178.55
 20
71.5423
 30
0.0
 11
228.25
 21
71.5423
 31
0.0
  0
LINE
  8
0
 62
     0
 10
228.25
 20
71.5423
 30
0.0
 11
228.25
 21
75.5428
 31
0.0
  0
LINE
  8
0
 62
     0
 10
228.25
 20
75.5428
 30
0.0
 11
178.55
 21
75.5428
 31
0.0
  0
LINE
  8
0
 62
     0
 10
178.55
 20
75.5428
 30
0.0
 11
178.55
 21
71.5423
 31
0.0
  0
LINE
  8
0
 62
     1
 10
95.9541
 20
97.1709
 30
0.0
 11
95.7682
 21
97.3088
 31
0.0
  0
LINE
  8
0
 62
     1
 10
95.7682
 20
97.3088
 30
0.0
 11
94.9565
 21
98.2073
 31
0.0
  0
LINE
  8
0
 62
     1
 10
94.9565
 20
98.2073
 30
0.0
 11
94.24
 21
99.2477
 31
0.0
  0
LINE
  8
0
 62
     1
 10
94.24
 20
99.2477
 30
0.0
 11
94.1035
 21
99.4558
 31
0.0
  0
LINE
  8
0
 62
     1
 10
96.0067
 20
96.4516
 30
0.0
 11
95.9294
 21
96.4075
 31
0.0
  0
LINE
  8
0
 62
     1
 10
95.9294
 20
96.4075
 30
0.0
 11
95.2391
 21
96.1817
 31
0.0
  0
LINE
  8
0
 62
     1
 10
95.2391
 20
96.1817
 30
0.0
 11
95.1742
 21
96.1842
 31
0.0
  0
LINE
  8
0
 62
     1
 10
97.1091
 20
95.9527
 30
0.0
 11
97.1144
 21
95.7986
 31
0.0
  0
LINE
  8
0
 62
     1
 10
97.1144
 20
95.7986
 30
0.0
 11
97.3018
 21
95.1562
 31
0.0
  0
LINE
  8
0
 62
     1
 10
97.3018
 20
95.1562
 30
0.0
 11
97.6464
 21
94.6203
 31
0.0
  0
LINE
  8
0
 62
     1
 10
97.6464
 20
94.6203
 30
0.0
 11
97.7318
 21
94.5197
 31
0.0
  0
LINE
  8
0
 62
     1
 10
97.233
 20
96.0561
 30
0.0
 11
97.6189
 21
95.8921
 31
0.0
  0
LINE
  8
0
 62
     1
 10
97.6189
 20
95.8921
 30
0.0
 11
98.83
 21
95.5118
 31
0.0
  0
LINE
  8
0
 62
     1
 10
98.83
 20
95.5118
 30
0.0
 11
100.269
 21
95.2997
 31
0.0
  0
LINE
  8
0
 62
     1
 10
100.269
 20
95.2997
 30
0.0
 11
101.574
 21
95.4003
 31
0.0
  0
LINE
  8
0
 62
     1
 10
101.574
 20
95.4003
 30
0.0
 11
102.486
 21
95.6606
 31
0.0
  0
LINE
  8
0
 62
     1
 10
102.486
 20
95.6606
 30
0.0
 11
102.77
 21
95.7901
 31
0.0
  0
LINE
  8
0
 62
     1
 10
97.3116
 20
97.1476
 30
0.0
 11
97.8062
 21
97.24
 31
0.0
  0
LINE
  8
0
 62
     1
 10
97.8062
 20
97.24
 30
0.0
 11
99.2353
 21
97.8408
 31
0.0
  0
LINE
  8
0
 62
     1
 10
99.2353
 20
97.8408
 30
0.0
 11
100.802
 21
99.0519
 31
0.0
  0
LINE
  8
0
 62
     1
 10
100.802
 20
99.0519
 30
0.0
 11
102.103
 21
100.662
 31
0.0
  0
LINE
  8
0
 62
     1
 10
102.103
 20
100.662
 30
0.0
 11
102.971
 21
102.066
 31
0.0
  0
LINE
  8
0
 62
     1
 10
102.971
 20
102.066
 30
0.0
 11
103.233
 21
102.548
 31
0.0
  0
LINE
  8
0
 62
     1
 10
96.5193
 20
97.6545
 30
0.0
 11
96.4696
 21
98.1784
 31
0.0
  0
LINE
  8
0
 62
     1
 10
96.4696
 20
98.1784
 30
0.0
 11
96.5165
 21
99.7645
 31
0.0
  0
LINE
  8
0
 62
     1
 10
96.5165
 20
99.7645
 30
0.0
 11
96.9243
 21
101.59
 31
0.0
  0
LINE
  8
0
 62
     1
 10
96.9243
 20
101.59
 30
0.0
 11
97.7194
 21
103.179
 31
0.0
  0
LINE
  8
0
 62
     1
 10
97.7194
 20
103.179
 30
0.0
 11
98.5545
 21
104.258
 31
0.0
  0
LINE
  8
0
 62
     1
 10
98.5545
 20
104.258
 30
0.0
 11
98.8755
 21
104.575
 31
0.0
  0
LINE
  8
0
 62
     1
 10
97.3459
 20
97.0499
 30
0.0
 11
97.3942
 21
96.9352
 31
0.0
  0
LINE
  8
0
 62
     1
 10
97.3942
 20
96.9352
 30
0.0
 11
97.3998
 21
96.3771
 31
0.0
  0
LINE
  8
0
 62
     1
 10
97.3998
 20
96.3771
 30
0.0
 11
97.1243
 21
95.9707
 31
0.0
  0
LINE
  8
0
 62
     1
 10
97.1243
 20
95.9707
 30
0.0
 11
97.0319
 21
95.9309
 31
0.0
  0
LINE
  8
0
 62
     1
 10
97.0319
 20
95.9309
 30
0.0
 11
96.938
 21
95.8921
 31
0.0
  0
LINE
  8
0
 62
     1
 10
96.938
 20
95.8921
 30
0.0
 11
96.453
 21
95.9735
 31
0.0
  0
LINE
  8
0
 62
     1
 10
96.453
 20
95.9735
 30
0.0
 11
96.0533
 21
96.3648
 31
0.0
  0
LINE
  8
0
 62
     1
 10
96.0533
 20
96.3648
 30
0.0
 11
96.0053
 21
96.4791
 31
0.0
  0
LINE
  8
0
 62
     1
 10
96.0053
 20
96.4791
 30
0.0
 11
95.9556
 21
96.5951
 31
0.0
  0
LINE
  8
0
 62
     1
 10
95.9556
 20
96.5951
 30
0.0
 11
95.9499
 21
97.1532
 31
0.0
  0
LINE
  8
0
 62
     1
 10
95.9499
 20
97.1532
 30
0.0
 11
96.2272
 21
97.5596
 31
0.0
  0
LINE
  8
0
 62
     1
 10
96.2272
 20
97.5596
 30
0.0
 11
96.3193
 21
97.5981
 31
0.0
  0
LINE
  8
0
 62
     1
 10
96.3193
 20
97.5981
 30
0.0
 11
96.4117
 21
97.6383
 31
0.0
  0
LINE
  8
0
 62
     1
 10
96.4117
 20
97.6383
 30
0.0
 11
96.8968
 21
97.5568
 31
0.0
  0
LINE
  8
0
 62
     1
 10
96.8968
 20
97.5568
 30
0.0
 11
97.2965
 21
97.1656
 31
0.0
  0
LINE
  8
0
 62
     1
 10
97.2965
 20
97.1656
 30
0.0
 11
97.3459
 21
97.0499
 31
0.0
  0
LINE
  8
0
 62
     1
 10
99.1443
 20
93.4491
 30
0.0
 11
99.1443
 21
93.3704
 31
0.0
  0
LINE
  8
0
 62
     1
 10
99.1443
 20
93.3704
 30
0.0
 11
99.0342
 21
93.1333
 31
0.0
  0
LINE
  8
0
 62
     1
 10
99.0342
 20
93.1333
 30
0.0
 11
98.837
 21
93.0025
 31
0.0
  0
LINE
  8
0
 62
     1
 10
98.837
 20
93.0025
 30
0.0
 11
98.7721
 21
93.0025
 31
0.0
  0
LINE
  8
0
 62
     1
 10
98.7721
 20
93.0025
 30
0.0
 11
98.7062
 21
93.0025
 31
0.0
  0
LINE
  8
0
 62
     1
 10
98.7062
 20
93.0025
 30
0.0
 11
98.509
 21
93.1333
 31
0.0
  0
LINE
  8
0
 62
     1
 10
98.509
 20
93.1333
 30
0.0
 11
98.4003
 21
93.3704
 31
0.0
  0
LINE
  8
0
 62
     1
 10
98.4003
 20
93.3704
 30
0.0
 11
98.4003
 21
93.4491
 31
0.0
  0
LINE
  8
0
 62
     1
 10
98.4003
 20
93.4491
 30
0.0
 11
98.4003
 21
93.5288
 31
0.0
  0
LINE
  8
0
 62
     1
 10
98.4003
 20
93.5288
 30
0.0
 11
98.509
 21
93.7659
 31
0.0
  0
LINE
  8
0
 62
     1
 10
98.509
 20
93.7659
 30
0.0
 11
98.7062
 21
93.8953
 31
0.0
  0
LINE
  8
0
 62
     1
 10
98.7062
 20
93.8953
 30
0.0
 11
98.7721
 21
93.8953
 31
0.0
  0
LINE
  8
0
 62
     1
 10
98.7721
 20
93.8953
 30
0.0
 11
98.837
 21
93.8953
 31
0.0
  0
LINE
  8
0
 62
     1
 10
98.837
 20
93.8953
 30
0.0
 11
99.0342
 21
93.7659
 31
0.0
  0
LINE
  8
0
 62
     1
 10
99.0342
 20
93.7659
 30
0.0
 11
99.1443
 21
93.5288
 31
0.0
  0
LINE
  8
0
 62
     1
 10
99.1443
 20
93.5288
 30
0.0
 11
99.1443
 21
93.4491
 31
0.0
  0
LINE
  8
0
 62
     1
 10
97.8503
 20
92.1413
 30
0.0
 11
97.9992
 21
91.9992
 31
0.0
  0
LINE
  8
0
 62
     1
 10
97.9992
 20
91.9992
 30
0.0
 11
98.7118
 21
91.7924
 31
0.0
  0
LINE
  8
0
 62
     1
 10
98.7118
 20
91.7924
 30
0.0
 11
99.3856
 21
92.1798
 31
0.0
  0
LINE
  8
0
 62
     1
 10
99.3856
 20
92.1798
 30
0.0
 11
99.5151
 21
92.3339
 31
0.0
  0
LINE
  8
0
 62
     1
 10
100.491
 20
88.6866
 30
0.0
 11
100.593
 21
88.2908
 31
0.0
  0
LINE
  8
0
 62
     1
 10
100.593
 20
88.2908
 30
0.0
 11
100.959
 21
87.1167
 31
0.0
  0
LINE
  8
0
 62
     1
 10
100.959
 20
87.1167
 30
0.0
 11
101.435
 21
86.0033
 31
0.0
  0
LINE
  8
0
 62
     1
 10
101.435
 20
86.0033
 30
0.0
 11
101.917
 21
85.3722
 31
0.0
  0
LINE
  8
0
 62
     1
 10
101.917
 20
85.3722
 30
0.0
 11
102.301
 21
85.2205
 31
0.0
  0
LINE
  8
0
 62
     1
 10
102.301
 20
85.2205
 30
0.0
 11
102.408
 21
85.2495
 31
0.0
  0
LINE
  8
0
 62
     1
 10
102.408
 20
85.2495
 30
0.0
 11
102.582
 21
85.2371
 31
0.0
  0
LINE
  8
0
 62
     1
 10
102.582
 20
85.2371
 30
0.0
 11
103.134
 21
85.5472
 31
0.0
  0
LINE
  8
0
 62
     1
 10
103.134
 20
85.5472
 30
0.0
 11
103.488
 21
86.4044
 31
0.0
  0
LINE
  8
0
 62
     1
 10
103.488
 20
86.4044
 30
0.0
 11
103.633
 21
87.57
 31
0.0
  0
LINE
  8
0
 62
     1
 10
103.633
 20
87.57
 30
0.0
 11
103.699
 21
88.4837
 31
0.0
  0
LINE
  8
0
 62
     1
 10
103.699
 20
88.4837
 30
0.0
 11
103.733
 21
88.7857
 31
0.0
  0
LINE
  8
0
 62
     1
 10
103.733
 20
88.7857
 30
0.0
 11
103.748
 21
88.9289
 31
0.0
  0
LINE
  8
0
 62
     1
 10
103.748
 20
88.9289
 30
0.0
 11
104.014
 21
89.4045
 31
0.0
  0
LINE
  8
0
 62
     1
 10
104.014
 20
89.4045
 30
0.0
 11
104.34
 21
89.8109
 31
0.0
  0
LINE
  8
0
 62
     1
 10
104.34
 20
89.8109
 30
0.0
 11
104.385
 21
89.9185
 31
0.0
  0
LINE
  8
0
 62
     1
 10
99.0092
 20
89.7915
 30
0.0
 11
99.0921
 21
89.6578
 31
0.0
  0
LINE
  8
0
 62
     1
 10
99.0921
 20
89.6578
 30
0.0
 11
99.646
 21
89.1095
 31
0.0
  0
LINE
  8
0
 62
     1
 10
99.646
 20
89.1095
 30
0.0
 11
100.339
 21
88.736
 31
0.0
  0
LINE
  8
0
 62
     1
 10
100.339
 20
88.736
 30
0.0
 11
100.492
 21
88.689
 31
0.0
  0
LINE
  8
0
 62
     1
 10
100.492
 20
88.689
 30
0.0
 11
100.7
 21
88.6273
 31
0.0
  0
LINE
  8
0
 62
     1
 10
100.7
 20
88.6273
 30
0.0
 11
101.362
 21
88.5515
 31
0.0
  0
LINE
  8
0
 62
     1
 10
101.362
 20
88.5515
 30
0.0
 11
102.238
 21
88.6464
 31
0.0
  0
LINE
  8
0
 62
     1
 10
102.238
 20
88.6464
 30
0.0
 11
103.036
 21
88.9801
 31
0.0
  0
LINE
  8
0
 62
     1
 10
103.036
 20
88.9801
 30
0.0
 11
103.545
 21
89.3851
 31
0.0
  0
LINE
  8
0
 62
     1
 10
103.545
 20
89.3851
 30
0.0
 11
103.673
 21
89.5519
 31
0.0
  0
LINE
  8
0
 62
     1
 10
103.673
 20
89.5519
 30
0.0
 11
103.717
 21
89.6112
 31
0.0
  0
LINE
  8
0
 62
     1
 10
103.717
 20
89.6112
 30
0.0
 11
104.01
 21
89.8179
 31
0.0
  0
LINE
  8
0
 62
     1
 10
104.01
 20
89.8179
 30
0.0
 11
104.342
 21
89.9086
 31
0.0
  0
LINE
  8
0
 62
     1
 10
104.342
 20
89.9086
 30
0.0
 11
104.407
 21
89.91
 31
0.0
  0
LINE
  8
0
 62
     1
 10
103.548
 20
90.0963
 30
0.0
 11
103.701
 21
90.1305
 31
0.0
  0
LINE
  8
0
 62
     1
 10
103.701
 20
90.1305
 30
0.0
 11
104.178
 21
90.1594
 31
0.0
  0
LINE
  8
0
 62
     1
 10
104.178
 20
90.1594
 30
0.0
 11
104.59
 21
90.0423
 31
0.0
  0
LINE
  8
0
 62
     1
 10
104.59
 20
90.0423
 30
0.0
 11
104.852
 21
89.7985
 31
0.0
  0
LINE
  8
0
 62
     1
 10
104.852
 20
89.7985
 30
0.0
 11
104.99
 21
89.5657
 31
0.0
  0
LINE
  8
0
 62
     1
 10
104.99
 20
89.5657
 30
0.0
 11
105.029
 21
89.4828
 31
0.0
  0
LINE
  8
0
 62
     1
 10
108.481
 20
72.4726
 30
0.0
 11
108.327
 21
72.6528
 31
0.0
  0
LINE
  8
0
 62
     1
 10
108.327
 20
72.6528
 30
0.0
 11
108.059
 21
73.3517
 31
0.0
  0
LINE
  8
0
 62
     1
 10
108.059
 20
73.3517
 30
0.0
 11
107.956
 21
74.5243
 31
0.0
  0
LINE
  8
0
 62
     1
 10
107.956
 20
74.5243
 30
0.0
 11
108.119
 21
75.9273
 31
0.0
  0
LINE
  8
0
 62
     1
 10
108.119
 20
75.9273
 30
0.0
 11
108.387
 21
77.1042
 31
0.0
  0
LINE
  8
0
 62
     1
 10
108.387
 20
77.1042
 30
0.0
 11
108.499
 21
77.4883
 31
0.0
  0
LINE
  8
0
 62
     1
 10
108.499
 20
77.4883
 30
0.0
 11
108.526
 21
77.585
 31
0.0
  0
LINE
  8
0
 62
     1
 10
108.526
 20
77.585
 30
0.0
 11
108.646
 21
78.5855
 31
0.0
  0
LINE
  8
0
 62
     1
 10
108.646
 20
78.5855
 30
0.0
 11
108.658
 21
78.686
 31
0.0
  0
LINE
  8
0
 62
     1
 10
110.341
 20
78.77
 30
0.0
 11
110.439
 21
78.5495
 31
0.0
  0
LINE
  8
0
 62
     1
 10
110.439
 20
78.5495
 30
0.0
 11
110.883
 21
77.4058
 31
0.0
  0
LINE
  8
0
 62
     1
 10
110.883
 20
77.4058
 30
0.0
 11
111.108
 21
76.0843
 31
0.0
  0
LINE
  8
0
 62
     1
 10
111.108
 20
76.0843
 30
0.0
 11
111.097
 21
75.7742
 31
0.0
  0
LINE
  8
0
 62
     1
 10
111.097
 20
75.7742
 30
0.0
 11
111.089
 21
75.5523
 31
0.0
  0
LINE
  8
0
 62
     1
 10
111.089
 20
75.5523
 30
0.0
 11
111.173
 21
74.8827
 31
0.0
  0
LINE
  8
0
 62
     1
 10
111.173
 20
74.8827
 30
0.0
 11
111.434
 21
74.21
 31
0.0
  0
LINE
  8
0
 62
     1
 10
111.434
 20
74.21
 30
0.0
 11
111.817
 21
73.6879
 31
0.0
  0
LINE
  8
0
 62
     1
 10
111.817
 20
73.6879
 30
0.0
 11
112.149
 21
73.3503
 31
0.0
  0
LINE
  8
0
 62
     1
 10
112.149
 20
73.3503
 30
0.0
 11
112.264
 21
73.2413
 31
0.0
  0
LINE
  8
0
 62
     1
 10
112.264
 20
73.2413
 30
0.0
 11
112.449
 21
73.2525
 31
0.0
  0
LINE
  8
0
 62
     1
 10
112.449
 20
73.2525
 30
0.0
 11
113.291
 21
73.1629
 31
0.0
  0
LINE
  8
0
 62
     1
 10
113.291
 20
73.1629
 30
0.0
 11
114.082
 21
72.9823
 31
0.0
  0
LINE
  8
0
 62
     1
 10
114.082
 20
72.9823
 30
0.0
 11
114.241
 21
72.9463
 31
0.0
  0
LINE
  8
0
 62
     1
 10
112.267
 20
73.2427
 30
0.0
 11
112.032
 21
73.236
 31
0.0
  0
LINE
  8
0
 62
     1
 10
112.032
 20
73.236
 30
0.0
 11
111.017
 21
73.1615
 31
0.0
  0
LINE
  8
0
 62
     1
 10
111.017
 20
73.1615
 30
0.0
 11
110.202
 21
73.0444
 31
0.0
  0
LINE
  8
0
 62
     1
 10
110.202
 20
73.0444
 30
0.0
 11
110.067
 21
73.0155
 31
0.0
  0
LINE
  8
0
 62
     1
 10
107.891
 20
75.365
 30
0.0
 11
107.655
 21
75.5537
 31
0.0
  0
LINE
  8
0
 62
     1
 10
107.655
 20
75.5537
 30
0.0
 11
107.134
 21
76.3545
 31
0.0
  0
LINE
  8
0
 62
     1
 10
107.134
 20
76.3545
 30
0.0
 11
106.477
 21
77.815
 31
0.0
  0
LINE
  8
0
 62
     1
 10
106.477
 20
77.815
 30
0.0
 11
105.968
 21
79.3902
 31
0.0
  0
LINE
  8
0
 62
     1
 10
105.968
 20
79.3902
 30
0.0
 11
105.716
 21
80.3822
 31
0.0
  0
LINE
  8
0
 62
     1
 10
105.716
 20
80.3822
 30
0.0
 11
105.656
 21
80.7159
 31
0.0
  0
LINE
  8
0
 62
     1
 10
105.656
 20
80.7159
 30
0.0
 11
105.59
 21
81.0715
 31
0.0
  0
LINE
  8
0
 62
     1
 10
105.59
 20
81.0715
 30
0.0
 11
105.219
 21
82.1034
 31
0.0
  0
LINE
  8
0
 62
     1
 10
105.219
 20
82.1034
 30
0.0
 11
104.539
 21
83.1413
 31
0.0
  0
LINE
  8
0
 62
     1
 10
104.539
 20
83.1413
 30
0.0
 11
103.696
 21
83.8232
 31
0.0
  0
LINE
  8
0
 62
     1
 10
103.696
 20
83.8232
 30
0.0
 11
102.771
 21
84.1403
 31
0.0
  0
LINE
  8
0
 62
     1
 10
102.771
 20
84.1403
 30
0.0
 11
101.845
 21
84.0839
 31
0.0
  0
LINE
  8
0
 62
     1
 10
101.845
 20
84.0839
 30
0.0
 11
100.999
 21
83.6443
 31
0.0
  0
LINE
  8
0
 62
     1
 10
100.999
 20
83.6443
 30
0.0
 11
100.314
 21
82.8146
 31
0.0
  0
LINE
  8
0
 62
     1
 10
100.314
 20
82.8146
 30
0.0
 11
99.9367
 21
81.9023
 31
0.0
  0
LINE
  8
0
 62
     1
 10
99.9367
 20
81.9023
 30
0.0
 11
99.8721
 21
81.5855
 31
0.0
  0
LINE
  8
0
 62
     1
 10
104.599
 20
92.0295
 30
0.0
 11
104.599
 21
91.8475
 31
0.0
  0
LINE
  8
0
 62
     1
 10
104.599
 20
91.8475
 30
0.0
 11
104.296
 21
91.3007
 31
0.0
  0
LINE
  8
0
 62
     1
 10
104.296
 20
91.3007
 30
0.0
 11
103.748
 21
90.9973
 31
0.0
  0
LINE
  8
0
 62
     1
 10
103.748
 20
90.9973
 30
0.0
 11
103.566
 21
90.9973
 31
0.0
  0
LINE
  8
0
 62
     1
 10
103.566
 20
90.9973
 30
0.0
 11
103.383
 21
90.9973
 31
0.0
  0
LINE
  8
0
 62
     1
 10
103.383
 20
90.9973
 30
0.0
 11
102.838
 21
91.3007
 31
0.0
  0
LINE
  8
0
 62
     1
 10
102.838
 20
91.3007
 30
0.0
 11
102.536
 21
91.8475
 31
0.0
  0
LINE
  8
0
 62
     1
 10
102.536
 20
91.8475
 30
0.0
 11
102.536
 21
92.0295
 31
0.0
  0
LINE
  8
0
 62
     1
 10
102.536
 20
92.0295
 30
0.0
 11
102.536
 21
92.2129
 31
0.0
  0
LINE
  8
0
 62
     1
 10
102.536
 20
92.2129
 30
0.0
 11
102.838
 21
92.7587
 31
0.0
  0
LINE
  8
0
 62
     1
 10
102.838
 20
92.7587
 30
0.0
 11
103.383
 21
93.0603
 31
0.0
  0
LINE
  8
0
 62
     1
 10
103.383
 20
93.0603
 30
0.0
 11
103.566
 21
93.0603
 31
0.0
  0
LINE
  8
0
 62
     1
 10
103.566
 20
93.0603
 30
0.0
 11
103.748
 21
93.0603
 31
0.0
  0
LINE
  8
0
 62
     1
 10
103.748
 20
93.0603
 30
0.0
 11
104.296
 21
92.7587
 31
0.0
  0
LINE
  8
0
 62
     1
 10
104.296
 20
92.7587
 30
0.0
 11
104.599
 21
92.2129
 31
0.0
  0
LINE
  8
0
 62
     1
 10
104.599
 20
92.2129
 30
0.0
 11
104.599
 21
92.0295
 31
0.0
  0
LINE
  8
0
 62
     1
 10
104.284
 20
91.7014
 30
0.0
 11
104.284
 21
91.5928
 31
0.0
  0
LINE
  8
0
 62
     1
 10
104.284
 20
91.5928
 30
0.0
 11
104.129
 21
91.2633
 31
0.0
  0
LINE
  8
0
 62
     1
 10
104.129
 20
91.2633
 30
0.0
 11
103.848
 21
91.0802
 31
0.0
  0
LINE
  8
0
 62
     1
 10
103.848
 20
91.0802
 30
0.0
 11
103.754
 21
91.0802
 31
0.0
  0
LINE
  8
0
 62
     1
 10
103.754
 20
91.0802
 30
0.0
 11
103.659
 21
91.0802
 31
0.0
  0
LINE
  8
0
 62
     1
 10
103.659
 20
91.0802
 30
0.0
 11
103.378
 21
91.2633
 31
0.0
  0
LINE
  8
0
 62
     1
 10
103.378
 20
91.2633
 30
0.0
 11
103.223
 21
91.5928
 31
0.0
  0
LINE
  8
0
 62
     1
 10
103.223
 20
91.5928
 30
0.0
 11
103.223
 21
91.7014
 31
0.0
  0
LINE
  8
0
 62
     1
 10
103.223
 20
91.7014
 30
0.0
 11
103.223
 21
91.8118
 31
0.0
  0
LINE
  8
0
 62
     1
 10
103.223
 20
91.8118
 30
0.0
 11
103.378
 21
92.1399
 31
0.0
  0
LINE
  8
0
 62
     1
 10
103.378
 20
92.1399
 30
0.0
 11
103.659
 21
92.3216
 31
0.0
  0
LINE
  8
0
 62
     1
 10
103.659
 20
92.3216
 30
0.0
 11
103.754
 21
92.3216
 31
0.0
  0
LINE
  8
0
 62
     1
 10
103.754
 20
92.3216
 30
0.0
 11
103.848
 21
92.3216
 31
0.0
  0
LINE
  8
0
 62
     1
 10
103.848
 20
92.3216
 30
0.0
 11
104.129
 21
92.1399
 31
0.0
  0
LINE
  8
0
 62
     1
 10
104.129
 20
92.1399
 30
0.0
 11
104.284
 21
91.8118
 31
0.0
  0
LINE
  8
0
 62
     1
 10
104.284
 20
91.8118
 30
0.0
 11
104.284
 21
91.7014
 31
0.0
  0
LINE
  8
0
 62
     1
 10
100.863
 20
92.4415
 30
0.0
 11
100.768
 21
92.4415
 31
0.0
  0
LINE
  8
0
 62
     1
 10
100.768
 20
92.4415
 30
0.0
 11
100.485
 21
92.2803
 31
0.0
  0
LINE
  8
0
 62
     1
 10
100.485
 20
92.2803
 30
0.0
 11
100.329
 21
91.9882
 31
0.0
  0
LINE
  8
0
 62
     1
 10
100.329
 20
91.9882
 30
0.0
 11
100.329
 21
91.8905
 31
0.0
  0
LINE
  8
0
 62
     1
 10
100.329
 20
91.8905
 30
0.0
 11
100.385
 21
91.8531
 31
0.0
  0
LINE
  8
0
 62
     1
 10
100.385
 20
91.8531
 30
0.0
 11
100.943
 21
91.4121
 31
0.0
  0
LINE
  8
0
 62
     1
 10
100.943
 20
91.4121
 30
0.0
 11
100.999
 21
91.3585
 31
0.0
  0
LINE
  8
0
 62
     1
 10
100.999
 20
91.3585
 30
0.0
 11
101.057
 21
91.3751
 31
0.0
  0
LINE
  8
0
 62
     1
 10
101.057
 20
91.3751
 30
0.0
 11
101.283
 21
91.5554
 31
0.0
  0
LINE
  8
0
 62
     1
 10
101.283
 20
91.5554
 30
0.0
 11
101.395
 21
91.8076
 31
0.0
  0
LINE
  8
0
 62
     1
 10
101.395
 20
91.8076
 30
0.0
 11
101.395
 21
91.8905
 31
0.0
  0
LINE
  8
0
 62
     1
 10
101.395
 20
91.8905
 30
0.0
 11
101.395
 21
91.9882
 31
0.0
  0
LINE
  8
0
 62
     1
 10
101.395
 20
91.9882
 30
0.0
 11
101.238
 21
92.2803
 31
0.0
  0
LINE
  8
0
 62
     1
 10
101.238
 20
92.2803
 30
0.0
 11
100.957
 21
92.4415
 31
0.0
  0
LINE
  8
0
 62
     1
 10
100.957
 20
92.4415
 30
0.0
 11
100.863
 21
92.4415
 31
0.0
  0
LINE
  8
0
 62
     1
 10
100.66
 20
92.9749
 30
0.0
 11
100.516
 21
92.9749
 31
0.0
  0
LINE
  8
0
 62
     1
 10
100.516
 20
92.9749
 30
0.0
 11
100.081
 21
92.7612
 31
0.0
  0
LINE
  8
0
 62
     1
 10
100.081
 20
92.7612
 30
0.0
 11
99.8001
 21
92.3286
 31
0.0
  0
LINE
  8
0
 62
     1
 10
99.8001
 20
92.3286
 30
0.0
 11
99.785
 21
92.2196
 31
0.0
  0
LINE
  8
0
 62
     1
 10
99.785
 20
92.2196
 30
0.0
 11
99.8897
 21
92.1618
 31
0.0
  0
LINE
  8
0
 62
     1
 10
99.8897
 20
92.1618
 30
0.0
 11
100.954
 21
91.4026
 31
0.0
  0
LINE
  8
0
 62
     1
 10
100.954
 20
91.4026
 30
0.0
 11
101.061
 21
91.2978
 31
0.0
  0
LINE
  8
0
 62
     1
 10
101.061
 20
91.2978
 30
0.0
 11
101.136
 21
91.3363
 31
0.0
  0
LINE
  8
0
 62
     1
 10
101.136
 20
91.3363
 30
0.0
 11
101.415
 21
91.6259
 31
0.0
  0
LINE
  8
0
 62
     1
 10
101.415
 20
91.6259
 30
0.0
 11
101.546
 21
91.973
 31
0.0
  0
LINE
  8
0
 62
     1
 10
101.546
 20
91.973
 30
0.0
 11
101.546
 21
92.0888
 31
0.0
  0
LINE
  8
0
 62
     1
 10
101.546
 20
92.0888
 30
0.0
 11
101.546
 21
92.2457
 31
0.0
  0
LINE
  8
0
 62
     1
 10
101.546
 20
92.2457
 30
0.0
 11
101.286
 21
92.7156
 31
0.0
  0
LINE
  8
0
 62
     1
 10
101.286
 20
92.7156
 30
0.0
 11
100.816
 21
92.9749
 31
0.0
  0
LINE
  8
0
 62
     1
 10
100.816
 20
92.9749
 30
0.0
 11
100.66
 21
92.9749
 31
0.0
  0
LINE
  8
0
 62
     1
 10
101.05
 20
91.2964
 30
0.0
 11
101.101
 21
91.1849
 31
0.0
  0
LINE
  8
0
 62
     1
 10
101.101
 20
91.1849
 30
0.0
 11
101.375
 21
90.901
 31
0.0
  0
LINE
  8
0
 62
     1
 10
101.375
 20
90.901
 30
0.0
 11
101.796
 21
90.7905
 31
0.0
  0
LINE
  8
0
 62
     1
 10
101.796
 20
90.7905
 30
0.0
 11
102.27
 21
90.8484
 31
0.0
  0
LINE
  8
0
 62
     1
 10
102.27
 20
90.8484
 30
0.0
 11
102.636
 21
90.9313
 31
0.0
  0
LINE
  8
0
 62
     1
 10
102.636
 20
90.9313
 30
0.0
 11
102.76
 21
90.9546
 31
0.0
  0
LINE
  8
0
 62
     1
 10
100.357
 20
72.3995
 30
0.0
 11
100.652
 21
72.3868
 31
0.0
  0
LINE
  8
0
 62
     1
 10
100.652
 20
72.3868
 30
0.0
 11
101.538
 21
72.3579
 31
0.0
  0
LINE
  8
0
 62
     1
 10
101.538
 20
72.3579
 30
0.0
 11
102.592
 21
72.4228
 31
0.0
  0
LINE
  8
0
 62
     1
 10
102.592
 20
72.4228
 30
0.0
 11
103.44
 21
72.7135
 31
0.0
  0
LINE
  8
0
 62
     1
 10
103.44
 20
72.7135
 30
0.0
 11
103.919
 21
73.1654
 31
0.0
  0
LINE
  8
0
 62
     1
 10
103.919
 20
73.1654
 30
0.0
 11
104.006
 21
73.3489
 31
0.0
  0
LINE
  8
0
 62
     1
 10
104.006
 20
73.3489
 30
0.0
 11
104.258
 21
73.2
 31
0.0
  0
LINE
  8
0
 62
     1
 10
104.258
 20
73.2
 30
0.0
 11
105.044
 21
72.7908
 31
0.0
  0
LINE
  8
0
 62
     1
 10
105.044
 20
72.7908
 30
0.0
 11
106.119
 21
72.3896
 31
0.0
  0
LINE
  8
0
 62
     1
 10
106.119
 20
72.3896
 30
0.0
 11
107.251
 21
72.2383
 31
0.0
  0
LINE
  8
0
 62
     1
 10
107.251
 20
72.2383
 30
0.0
 11
108.176
 21
72.3374
 31
0.0
  0
LINE
  8
0
 62
     1
 10
108.176
 20
72.3374
 30
0.0
 11
108.467
 21
72.427
 31
0.0
  0
LINE
  8
0
 62
     1
 10
108.467
 20
72.427
 30
0.0
 11
108.687
 21
72.1639
 31
0.0
  0
LINE
  8
0
 62
     1
 10
108.687
 20
72.1639
 30
0.0
 11
109.583
 21
71.5656
 31
0.0
  0
LINE
  8
0
 62
     1
 10
109.583
 20
71.5656
 30
0.0
 11
111.069
 21
71.1937
 31
0.0
  0
LINE
  8
0
 62
     1
 10
111.069
 20
71.1937
 30
0.0
 11
112.91
 21
71.2971
 31
0.0
  0
LINE
  8
0
 62
     1
 10
112.91
 20
71.2971
 30
0.0
 11
114.563
 21
71.6827
 31
0.0
  0
LINE
  8
0
 62
     1
 10
114.563
 20
71.6827
 30
0.0
 11
115.098
 21
71.8619
 31
0.0
  0
LINE
  8
0
 62
     1
 10
115.098
 20
71.8619
 30
0.0
 11
115.149
 21
71.9529
 31
0.0
  0
LINE
  8
0
 62
     1
 10
115.149
 20
71.9529
 30
0.0
 11
114.951
 21
72.427
 31
0.0
  0
LINE
  8
0
 62
     1
 10
114.951
 20
72.427
 30
0.0
 11
114.405
 21
72.8486
 31
0.0
  0
LINE
  8
0
 62
     1
 10
114.405
 20
72.8486
 30
0.0
 11
114.294
 21
72.9326
 31
0.0
  0
LINE
  8
0
 62
     1
 10
114.294
 20
72.9326
 30
0.0
 11
114.999
 21
72.8789
 31
0.0
  0
LINE
  8
0
 62
     1
 10
114.999
 20
72.8789
 30
0.0
 11
118.423
 21
73.4632
 31
0.0
  0
LINE
  8
0
 62
     1
 10
118.423
 20
73.4632
 30
0.0
 11
121.772
 21
74.7462
 31
0.0
  0
LINE
  8
0
 62
     1
 10
121.772
 20
74.7462
 30
0.0
 11
122.437
 21
75.0411
 31
0.0
  0
LINE
  8
0
 62
     1
 10
122.437
 20
75.0411
 30
0.0
 11
122.8
 21
75.2313
 31
0.0
  0
LINE
  8
0
 62
     1
 10
122.8
 20
75.2313
 30
0.0
 11
124.657
 21
75.9435
 31
0.0
  0
LINE
  8
0
 62
     1
 10
124.657
 20
75.9435
 30
0.0
 11
126.548
 21
76.4134
 31
0.0
  0
LINE
  8
0
 62
     1
 10
126.548
 20
76.4134
 30
0.0
 11
126.928
 21
76.4826
 31
0.0
  0
LINE
  8
0
 62
     1
 10
126.928
 20
76.4826
 30
0.0
 11
127.091
 21
76.4868
 31
0.0
  0
LINE
  8
0
 62
     1
 10
127.091
 20
76.4868
 30
0.0
 11
127.58
 21
76.5016
 31
0.0
  0
LINE
  8
0
 62
     1
 10
127.58
 20
76.5016
 30
0.0
 11
128.229
 21
76.5348
 31
0.0
  0
LINE
  8
0
 62
     1
 10
128.229
 20
76.5348
 30
0.0
 11
128.798
 21
76.5941
 31
0.0
  0
LINE
  8
0
 62
     1
 10
128.798
 20
76.5941
 30
0.0
 11
129.214
 21
76.6907
 31
0.0
  0
LINE
  8
0
 62
     1
 10
129.214
 20
76.6907
 30
0.0
 11
129.406
 21
76.8354
 31
0.0
  0
LINE
  8
0
 62
     1
 10
129.406
 20
76.8354
 30
0.0
 11
129.296
 21
77.0421
 31
0.0
  0
LINE
  8
0
 62
     1
 10
129.296
 20
77.0421
 30
0.0
 11
128.812
 21
77.3204
 31
0.0
  0
LINE
  8
0
 62
     1
 10
128.812
 20
77.3204
 30
0.0
 11
128.116
 21
77.6016
 31
0.0
  0
LINE
  8
0
 62
     1
 10
128.116
 20
77.6016
 30
0.0
 11
127.881
 21
77.6827
 31
0.0
  0
LINE
  8
0
 62
     1
 10
127.881
 20
77.6827
 30
0.0
 11
127.681
 21
77.7515
 31
0.0
  0
LINE
  8
0
 62
     1
 10
127.681
 20
77.7515
 30
0.0
 11
127.036
 21
77.8207
 31
0.0
  0
LINE
  8
0
 62
     1
 10
127.036
 20
77.8207
 30
0.0
 11
126.038
 21
77.7586
 31
0.0
  0
LINE
  8
0
 62
     1
 10
126.038
 20
77.7586
 30
0.0
 11
124.92
 21
77.5727
 31
0.0
  0
LINE
  8
0
 62
     1
 10
124.92
 20
77.5727
 30
0.0
 11
124.021
 21
77.392
 31
0.0
  0
LINE
  8
0
 62
     1
 10
124.021
 20
77.392
 30
0.0
 11
123.722
 21
77.3328
 31
0.0
  0
LINE
  8
0
 62
     1
 10
123.722
 20
77.3328
 30
0.0
 11
123.945
 21
77.4291
 31
0.0
  0
LINE
  8
0
 62
     1
 10
123.945
 20
77.4291
 30
0.0
 11
124.595
 21
77.7695
 31
0.0
  0
LINE
  8
0
 62
     1
 10
124.595
 20
77.7695
 30
0.0
 11
125.005
 21
78.1043
 31
0.0
  0
LINE
  8
0
 62
     1
 10
125.005
 20
78.1043
 30
0.0
 11
125.075
 21
78.3664
 31
0.0
  0
LINE
  8
0
 62
     1
 10
125.075
 20
78.3664
 30
0.0
 11
124.982
 21
78.5386
 31
0.0
  0
LINE
  8
0
 62
     1
 10
124.982
 20
78.5386
 30
0.0
 11
124.94
 21
78.5827
 31
0.0
  0
LINE
  8
0
 62
     1
 10
124.94
 20
78.5827
 30
0.0
 11
124.615
 21
78.6874
 31
0.0
  0
LINE
  8
0
 62
     1
 10
124.615
 20
78.6874
 30
0.0
 11
123.571
 21
78.7852
 31
0.0
  0
LINE
  8
0
 62
     1
 10
123.571
 20
78.7852
 30
0.0
 11
122.603
 21
78.4902
 31
0.0
  0
LINE
  8
0
 62
     1
 10
122.603
 20
78.4902
 30
0.0
 11
121.857
 21
77.9127
 31
0.0
  0
LINE
  8
0
 62
     1
 10
121.857
 20
77.9127
 30
0.0
 11
121.345
 21
77.4238
 31
0.0
  0
LINE
  8
0
 62
     1
 10
121.345
 20
77.4238
 30
0.0
 11
121.164
 21
77.2735
 31
0.0
  0
LINE
  8
0
 62
     1
 10
121.164
 20
77.2735
 30
0.0
 11
120.839
 21
77.3423
 31
0.0
  0
LINE
  8
0
 62
     1
 10
120.839
 20
77.3423
 30
0.0
 11
119.888
 21
77.658
 31
0.0
  0
LINE
  8
0
 62
     1
 10
119.888
 20
77.658
 30
0.0
 11
118.564
 21
78.2863
 31
0.0
  0
LINE
  8
0
 62
     1
 10
118.564
 20
78.2863
 30
0.0
 11
117.274
 21
79.145
 31
0.0
  0
LINE
  8
0
 62
     1
 10
117.274
 20
79.145
 30
0.0
 11
116.375
 21
79.9274
 31
0.0
  0
LINE
  8
0
 62
     1
 10
116.375
 20
79.9274
 30
0.0
 11
116.109
 21
80.2185
 31
0.0
  0
LINE
  8
0
 62
     1
 10
116.109
 20
80.2185
 30
0.0
 11
115.671
 21
80.6979
 31
0.0
  0
LINE
  8
0
 62
     1
 10
115.671
 20
80.6979
 30
0.0
 11
114.22
 21
82.0099
 31
0.0
  0
LINE
  8
0
 62
     1
 10
114.22
 20
82.0099
 30
0.0
 11
112.288
 21
83.3258
 31
0.0
  0
LINE
  8
0
 62
     1
 10
112.288
 20
83.3258
 30
0.0
 11
110.422
 21
84.0853
 31
0.0
  0
LINE
  8
0
 62
     1
 10
110.422
 20
84.0853
 30
0.0
 11
109.142
 21
84.2627
 31
0.0
  0
LINE
  8
0
 62
     1
 10
109.142
 20
84.2627
 30
0.0
 11
108.734
 21
84.2024
 31
0.0
  0
LINE
  8
0
 62
     1
 10
108.734
 20
84.2024
 30
0.0
 11
108.713
 21
84.5771
 31
0.0
  0
LINE
  8
0
 62
     1
 10
108.713
 20
84.5771
 30
0.0
 11
108.613
 21
85.6961
 31
0.0
  0
LINE
  8
0
 62
     1
 10
108.613
 20
85.6961
 30
0.0
 11
108.39
 21
87.1001
 31
0.0
  0
LINE
  8
0
 62
     1
 10
108.39
 20
87.1001
 30
0.0
 11
108.034
 21
88.386
 31
0.0
  0
LINE
  8
0
 62
     1
 10
108.034
 20
88.386
 30
0.0
 11
107.67
 21
89.2556
 31
0.0
  0
LINE
  8
0
 62
     1
 10
107.67
 20
89.2556
 30
0.0
 11
107.515
 21
89.5244
 31
0.0
  0
LINE
  8
0
 62
     1
 10
107.515
 20
89.5244
 30
0.0
 11
107.633
 21
89.6207
 31
0.0
  0
LINE
  8
0
 62
     1
 10
107.633
 20
89.6207
 30
0.0
 11
107.922
 21
89.9943
 31
0.0
  0
LINE
  8
0
 62
     1
 10
107.922
 20
89.9943
 30
0.0
 11
107.896
 21
90.3538
 31
0.0
  0
LINE
  8
0
 62
     1
 10
107.896
 20
90.3538
 30
0.0
 11
107.56
 21
90.6406
 31
0.0
  0
LINE
  8
0
 62
     1
 10
107.56
 20
90.6406
 30
0.0
 11
107.171
 21
90.8346
 31
0.0
  0
LINE
  8
0
 62
     1
 10
107.171
 20
90.8346
 30
0.0
 11
107.039
 21
90.8914
 31
0.0
  0
LINE
  8
0
 62
     1
 10
107.039
 20
90.8914
 30
0.0
 11
106.899
 21
91.3074
 31
0.0
  0
LINE
  8
0
 62
     1
 10
106.899
 20
91.3074
 30
0.0
 11
106.263
 21
92.48
 31
0.0
  0
LINE
  8
0
 62
     1
 10
106.263
 20
92.48
 30
0.0
 11
105.271
 21
93.4942
 31
0.0
  0
LINE
  8
0
 62
     1
 10
105.271
 20
93.4942
 30
0.0
 11
104.133
 21
94.0456
 31
0.0
  0
LINE
  8
0
 62
     1
 10
104.133
 20
94.0456
 30
0.0
 11
103.223
 21
94.2276
 31
0.0
  0
LINE
  8
0
 62
     1
 10
103.223
 20
94.2276
 30
0.0
 11
102.919
 21
94.24
 31
0.0
  0
LINE
  8
0
 62
     1
 10
102.919
 20
94.24
 30
0.0
 11
102.572
 21
94.2552
 31
0.0
  0
LINE
  8
0
 62
     1
 10
102.572
 20
94.2552
 30
0.0
 11
101.524
 21
94.1419
 31
0.0
  0
LINE
  8
0
 62
     1
 10
101.524
 20
94.1419
 30
0.0
 11
100.628
 21
93.7521
 31
0.0
  0
LINE
  8
0
 62
     1
 10
100.628
 20
93.7521
 30
0.0
 11
100.039
 21
93.1429
 31
0.0
  0
LINE
  8
0
 62
     1
 10
100.039
 20
93.1429
 30
0.0
 11
99.6791
 21
92.5766
 31
0.0
  0
LINE
  8
0
 62
     1
 10
99.6791
 20
92.5766
 30
0.0
 11
99.5645
 21
92.3837
 31
0.0
  0
LINE
  8
0
 62
     1
 10
99.5645
 20
92.3837
 30
0.0
 11
99.5786
 21
92.4348
 31
0.0
  0
LINE
  8
0
 62
     1
 10
99.5786
 20
92.4348
 30
0.0
 11
99.5232
 21
92.8617
 31
0.0
  0
LINE
  8
0
 62
     1
 10
99.5232
 20
92.8617
 30
0.0
 11
99.5232
 21
93.0039
 31
0.0
  0
LINE
  8
0
 62
     1
 10
99.5232
 20
93.0039
 30
0.0
 11
99.5232
 21
93.1845
 31
0.0
  0
LINE
  8
0
 62
     1
 10
99.5232
 20
93.1845
 30
0.0
 11
99.4159
 21
93.726
 31
0.0
  0
LINE
  8
0
 62
     1
 10
99.4159
 20
93.726
 30
0.0
 11
99.1912
 21
94.1973
 31
0.0
  0
LINE
  8
0
 62
     1
 10
99.1912
 20
94.1973
 30
0.0
 11
99.132
 21
94.2675
 31
0.0
  0
LINE
  8
0
 62
     1
 10
99.132
 20
94.2675
 30
0.0
 11
99.1376
 21
94.2675
 31
0.0
  0
LINE
  8
0
 62
     1
 10
99.1376
 20
94.2675
 30
0.0
 11
99.15
 21
94.2661
 31
0.0
  0
LINE
  8
0
 62
     1
 10
99.15
 20
94.2661
 30
0.0
 11
99.1538
 21
94.2661
 31
0.0
  0
LINE
  8
0
 62
     1
 10
99.1538
 20
94.2661
 30
0.0
 11
99.4145
 21
94.2661
 31
0.0
  0
LINE
  8
0
 62
     1
 10
99.4145
 20
94.2661
 30
0.0
 11
100.196
 21
94.3723
 31
0.0
  0
LINE
  8
0
 62
     1
 10
100.196
 20
94.3723
 30
0.0
 11
101.167
 21
94.6725
 31
0.0
  0
LINE
  8
0
 62
     1
 10
101.167
 20
94.6725
 30
0.0
 11
102.045
 21
95.1495
 31
0.0
  0
LINE
  8
0
 62
     1
 10
102.045
 20
95.1495
 30
0.0
 11
102.811
 21
95.782
 31
0.0
  0
LINE
  8
0
 62
     1
 10
102.811
 20
95.782
 30
0.0
 11
103.443
 21
96.5468
 31
0.0
  0
LINE
  8
0
 62
     1
 10
103.443
 20
96.5468
 30
0.0
 11
103.919
 21
97.4259
 31
0.0
  0
LINE
  8
0
 62
     1
 10
103.919
 20
97.4259
 30
0.0
 11
104.221
 21
98.3961
 31
0.0
  0
LINE
  8
0
 62
     1
 10
104.221
 20
98.3961
 30
0.0
 11
104.327
 21
99.1775
 31
0.0
  0
LINE
  8
0
 62
     1
 10
104.327
 20
99.1775
 30
0.0
 11
104.327
 21
99.4378
 31
0.0
  0
LINE
  8
0
 62
     1
 10
104.327
 20
99.4378
 30
0.0
 11
104.327
 21
99.6996
 31
0.0
  0
LINE
  8
0
 62
     1
 10
104.327
 20
99.6996
 30
0.0
 11
104.221
 21
100.481
 31
0.0
  0
LINE
  8
0
 62
     1
 10
104.221
 20
100.481
 30
0.0
 11
103.919
 21
101.453
 31
0.0
  0
LINE
  8
0
 62
     1
 10
103.919
 20
101.453
 30
0.0
 11
103.443
 21
102.33
 31
0.0
  0
LINE
  8
0
 62
     1
 10
103.443
 20
102.33
 30
0.0
 11
102.811
 21
103.096
 31
0.0
  0
LINE
  8
0
 62
     1
 10
102.811
 20
103.096
 30
0.0
 11
102.045
 21
103.728
 31
0.0
  0
LINE
  8
0
 62
     1
 10
102.045
 20
103.728
 30
0.0
 11
101.167
 21
104.205
 31
0.0
  0
LINE
  8
0
 62
     1
 10
101.167
 20
104.205
 30
0.0
 11
100.196
 21
104.506
 31
0.0
  0
LINE
  8
0
 62
     1
 10
100.196
 20
104.506
 30
0.0
 11
99.4131
 21
104.61
 31
0.0
  0
LINE
  8
0
 62
     1
 10
99.4131
 20
104.61
 30
0.0
 11
99.1538
 21
104.61
 31
0.0
  0
LINE
  8
0
 62
     1
 10
99.1538
 20
104.61
 30
0.0
 11
98.9665
 21
104.61
 31
0.0
  0
LINE
  8
0
 62
     1
 10
98.9665
 20
104.61
 30
0.0
 11
98.4649
 21
104.563
 31
0.0
  0
LINE
  8
0
 62
     1
 10
98.4649
 20
104.563
 30
0.0
 11
98.4042
 21
104.549
 31
0.0
  0
LINE
  8
0
 62
     1
 10
98.4042
 20
104.549
 30
0.0
 11
97.9191
 21
104.45
 31
0.0
  0
LINE
  8
0
 62
     1
 10
97.9191
 20
104.45
 30
0.0
 11
96.5179
 21
103.908
 31
0.0
  0
LINE
  8
0
 62
     1
 10
96.5179
 20
103.908
 30
0.0
 11
95.1438
 21
102.84
 31
0.0
  0
LINE
  8
0
 62
     1
 10
95.1438
 20
102.84
 30
0.0
 11
94.2964
 21
101.306
 31
0.0
  0
LINE
  8
0
 62
     1
 10
94.2964
 20
101.306
 30
0.0
 11
93.9959
 21
99.7783
 31
0.0
  0
LINE
  8
0
 62
     1
 10
93.9959
 20
99.7783
 30
0.0
 11
93.9906
 21
99.2671
 31
0.0
  0
LINE
  8
0
 62
     1
 10
93.9906
 20
99.2671
 30
0.0
 11
94.0043
 21
98.8385
 31
0.0
  0
LINE
  8
0
 62
     1
 10
94.0043
 20
98.8385
 30
0.0
 11
94.3391
 21
97.561
 31
0.0
  0
LINE
  8
0
 62
     1
 10
94.3391
 20
97.561
 30
0.0
 11
95.2073
 21
96.1016
 31
0.0
  0
LINE
  8
0
 62
     1
 10
95.2073
 20
96.1016
 30
0.0
 11
96.5013
 21
95.0006
 31
0.0
  0
LINE
  8
0
 62
     1
 10
96.5013
 20
95.0006
 30
0.0
 11
97.7043
 21
94.4563
 31
0.0
  0
LINE
  8
0
 62
     1
 10
97.7043
 20
94.4563
 30
0.0
 11
98.1258
 21
94.3695
 31
0.0
  0
LINE
  8
0
 62
     1
 10
98.1258
 20
94.3695
 30
0.0
 11
98.0528
 21
94.3031
 31
0.0
  0
LINE
  8
0
 62
     1
 10
98.0528
 20
94.3031
 30
0.0
 11
97.7717
 21
93.8086
 31
0.0
  0
LINE
  8
0
 62
     1
 10
97.7717
 20
93.8086
 30
0.0
 11
97.6383
 21
93.2049
 31
0.0
  0
LINE
  8
0
 62
     1
 10
97.6383
 20
93.2049
 30
0.0
 11
97.6383
 21
93.0039
 31
0.0
  0
LINE
  8
0
 62
     1
 10
97.6383
 20
93.0039
 30
0.0
 11
97.6383
 21
92.7887
 31
0.0
  0
LINE
  8
0
 62
     1
 10
97.6383
 20
92.7887
 30
0.0
 11
97.7706
 21
92.2059
 31
0.0
  0
LINE
  8
0
 62
     1
 10
97.7706
 20
92.2059
 30
0.0
 11
97.7967
 21
92.1413
 31
0.0
  0
LINE
  8
0
 62
     1
 10
97.7967
 20
92.1413
 30
0.0
 11
97.7911
 21
92.1399
 31
0.0
  0
LINE
  8
0
 62
     1
 10
97.7911
 20
92.1399
 30
0.0
 11
97.7374
 21
91.9963
 31
0.0
  0
LINE
  8
0
 62
     1
 10
97.7374
 20
91.9963
 30
0.0
 11
97.5815
 21
91.5624
 31
0.0
  0
LINE
  8
0
 62
     1
 10
97.5815
 20
91.5624
 30
0.0
 11
97.4136
 21
90.9987
 31
0.0
  0
LINE
  8
0
 62
     1
 10
97.4136
 20
90.9987
 30
0.0
 11
97.3155
 21
90.4614
 31
0.0
  0
LINE
  8
0
 62
     1
 10
97.3155
 20
90.4614
 30
0.0
 11
97.3226
 21
89.964
 31
0.0
  0
LINE
  8
0
 62
     1
 10
97.3226
 20
89.964
 30
0.0
 11
97.463
 21
89.5188
 31
0.0
  0
LINE
  8
0
 62
     1
 10
97.463
 20
89.5188
 30
0.0
 11
97.7706
 21
89.1342
 31
0.0
  0
LINE
  8
0
 62
     1
 10
97.7706
 20
89.1342
 30
0.0
 11
98.2747
 21
88.8256
 31
0.0
  0
LINE
  8
0
 62
     1
 10
98.2747
 20
88.8256
 30
0.0
 11
98.8219
 21
88.6411
 31
0.0
  0
LINE
  8
0
 62
     1
 10
98.8219
 20
88.6411
 30
0.0
 11
99.0092
 21
88.6023
 31
0.0
  0
LINE
  8
0
 62
     1
 10
99.0092
 20
88.6023
 30
0.0
 11
99.3704
 21
88.2456
 31
0.0
  0
LINE
  8
0
 62
     1
 10
99.3704
 20
88.2456
 30
0.0
 11
100.036
 21
86.7473
 31
0.0
  0
LINE
  8
0
 62
     1
 10
100.036
 20
86.7473
 30
0.0
 11
100.137
 21
84.6046
 31
0.0
  0
LINE
  8
0
 62
     1
 10
100.137
 20
84.6046
 30
0.0
 11
99.8527
 21
82.3419
 31
0.0
  0
LINE
  8
0
 62
     1
 10
99.8527
 20
82.3419
 30
0.0
 11
99.6901
 21
80.6771
 31
0.0
  0
LINE
  8
0
 62
     1
 10
99.6901
 20
80.6771
 30
0.0
 11
99.7232
 21
80.1275
 31
0.0
  0
LINE
  8
0
 62
     1
 10
99.7232
 20
80.1275
 30
0.0
 11
99.7687
 21
79.6907
 31
0.0
  0
LINE
  8
0
 62
     1
 10
99.7687
 20
79.6907
 30
0.0
 11
100.288
 21
77.6457
 31
0.0
  0
LINE
  8
0
 62
     1
 10
100.288
 20
77.6457
 30
0.0
 11
101.124
 21
75.759
 31
0.0
  0
LINE
  8
0
 62
     1
 10
101.124
 20
75.759
 30
0.0
 11
101.33
 21
75.3992
 31
0.0
  0
LINE
  8
0
 62
     1
 10
101.33
 20
75.3992
 30
0.0
 11
101.39
 21
75.2394
 31
0.0
  0
LINE
  8
0
 62
     1
 10
101.39
 20
75.2394
 30
0.0
 11
101.359
 21
74.5091
 31
0.0
  0
LINE
  8
0
 62
     1
 10
101.359
 20
74.5091
 30
0.0
 11
100.93
 21
73.8558
 31
0.0
  0
LINE
  8
0
 62
     1
 10
100.93
 20
73.8558
 30
0.0
 11
100.794
 21
73.7348
 31
0.0
  0
LINE
  8
0
 62
     1
 10
100.794
 20
73.7348
 30
0.0
 11
100.664
 21
73.7016
 31
0.0
  0
LINE
  8
0
 62
     1
 10
100.664
 20
73.7016
 30
0.0
 11
99.9035
 21
73.5693
 31
0.0
  0
LINE
  8
0
 62
     1
 10
99.9035
 20
73.5693
 30
0.0
 11
99.085
 21
73.4536
 31
0.0
  0
LINE
  8
0
 62
     1
 10
99.085
 20
73.4536
 30
0.0
 11
98.9266
 21
73.4289
 31
0.0
  0
LINE
  8
0
 62
     1
 10
98.9266
 20
73.4289
 30
0.0
 11
98.7489
 21
73.3834
 31
0.0
  0
LINE
  8
0
 62
     1
 10
98.7489
 20
73.3834
 30
0.0
 11
98.2197
 21
73.2345
 31
0.0
  0
LINE
  8
0
 62
     1
 10
98.2197
 20
73.2345
 30
0.0
 11
97.7152
 21
73.0596
 31
0.0
  0
LINE
  8
0
 62
     1
 10
97.7152
 20
73.0596
 30
0.0
 11
97.4411
 21
72.9065
 31
0.0
  0
LINE
  8
0
 62
     1
 10
97.4411
 20
72.9065
 30
0.0
 11
97.4189
 21
72.7714
 31
0.0
  0
LINE
  8
0
 62
     1
 10
97.4189
 20
72.7714
 30
0.0
 11
97.6739
 21
72.6542
 31
0.0
  0
LINE
  8
0
 62
     1
 10
97.6739
 20
72.6542
 30
0.0
 11
98.232
 21
72.5551
 31
0.0
  0
LINE
  8
0
 62
     1
 10
98.232
 20
72.5551
 30
0.0
 11
99.1182
 21
72.4711
 31
0.0
  0
LINE
  8
0
 62
     1
 10
99.1182
 20
72.4711
 30
0.0
 11
100.047
 21
72.4133
 31
0.0
  0
LINE
  8
0
 62
     1
 10
100.047
 20
72.4133
 30
0.0
 11
100.357
 21
72.3995
 31
0.0
  0
ENDSEC
  0
EOF
